<mxfile host="app.diagrams.net" agent="Mozilla/5.0 (Windows NT 10.0; Win64; x64) AppleWebKit/537.36 (KHTML, like Gecko) Chrome/140.0.0.0 Safari/537.36" version="28.2.3">
  <diagram name="PÃ¡gina-1" id="S1E1aL-JEfwaJ4UUdQeI">
    <mxGraphModel dx="1985" dy="1793" grid="1" gridSize="10" guides="1" tooltips="1" connect="1" arrows="1" fold="1" page="1" pageScale="1" pageWidth="827" pageHeight="1169" math="0" shadow="0">
      <root>
        <mxCell id="0" />
        <mxCell id="1" parent="0" />
        <mxCell id="EDx5LjATlq7j0BT4Pbl9-2" value="&lt;font style=&quot;vertical-align: inherit;&quot; dir=&quot;auto&quot;&gt;&lt;font style=&quot;vertical-align: inherit;&quot; dir=&quot;auto&quot;&gt;&lt;font style=&quot;vertical-align: inherit;&quot; dir=&quot;auto&quot;&gt;&lt;font style=&quot;vertical-align: inherit;&quot; dir=&quot;auto&quot;&gt;atributos&lt;/font&gt;&lt;/font&gt;&lt;span style=&quot;white-space: pre;&quot;&gt;&#x9;&lt;/span&gt;&lt;/font&gt;&lt;/font&gt;" style="swimlane;whiteSpace=wrap;html=1;" vertex="1" parent="1">
          <mxGeometry x="50" y="150" width="140" height="150" as="geometry" />
        </mxCell>
        <mxCell id="EDx5LjATlq7j0BT4Pbl9-8" value="&lt;font style=&quot;vertical-align: inherit;&quot; dir=&quot;auto&quot;&gt;&lt;font style=&quot;vertical-align: inherit;&quot; dir=&quot;auto&quot;&gt;&lt;font style=&quot;vertical-align: inherit;&quot; dir=&quot;auto&quot;&gt;&lt;font style=&quot;vertical-align: inherit;&quot; dir=&quot;auto&quot;&gt;nome&lt;/font&gt;&lt;/font&gt;&lt;/font&gt;&lt;/font&gt;" style="text;html=1;align=center;verticalAlign=middle;resizable=0;points=[];autosize=1;strokeColor=none;fillColor=none;" vertex="1" parent="EDx5LjATlq7j0BT4Pbl9-2">
          <mxGeometry x="11" y="50" width="50" height="30" as="geometry" />
        </mxCell>
        <mxCell id="EDx5LjATlq7j0BT4Pbl9-9" value="&lt;font style=&quot;vertical-align: inherit;&quot; dir=&quot;auto&quot;&gt;&lt;font style=&quot;vertical-align: inherit;&quot; dir=&quot;auto&quot;&gt;&lt;font style=&quot;vertical-align: inherit;&quot; dir=&quot;auto&quot;&gt;&lt;font style=&quot;vertical-align: inherit;&quot; dir=&quot;auto&quot;&gt;id_aluno&lt;/font&gt;&lt;/font&gt;&lt;/font&gt;&lt;/font&gt;" style="text;html=1;align=center;verticalAlign=middle;resizable=0;points=[];autosize=1;strokeColor=none;fillColor=none;" vertex="1" parent="EDx5LjATlq7j0BT4Pbl9-2">
          <mxGeometry x="9" y="30" width="70" height="30" as="geometry" />
        </mxCell>
        <mxCell id="EDx5LjATlq7j0BT4Pbl9-10" value="&lt;font style=&quot;vertical-align: inherit;&quot; dir=&quot;auto&quot;&gt;&lt;font style=&quot;vertical-align: inherit;&quot; dir=&quot;auto&quot;&gt;turma&lt;/font&gt;&lt;/font&gt;" style="text;html=1;align=center;verticalAlign=middle;resizable=0;points=[];autosize=1;strokeColor=none;fillColor=none;" vertex="1" parent="EDx5LjATlq7j0BT4Pbl9-2">
          <mxGeometry x="11" y="72" width="50" height="30" as="geometry" />
        </mxCell>
        <mxCell id="EDx5LjATlq7j0BT4Pbl9-3" value="&lt;font style=&quot;vertical-align: inherit;&quot; dir=&quot;auto&quot;&gt;&lt;font style=&quot;vertical-align: inherit;&quot; dir=&quot;auto&quot;&gt;&lt;font style=&quot;vertical-align: inherit;&quot; dir=&quot;auto&quot;&gt;&lt;font style=&quot;vertical-align: inherit;&quot; dir=&quot;auto&quot;&gt;atributos&lt;/font&gt;&lt;/font&gt;&lt;/font&gt;&lt;/font&gt;" style="swimlane;whiteSpace=wrap;html=1;" vertex="1" parent="1">
          <mxGeometry x="540" y="150" width="140" height="160" as="geometry" />
        </mxCell>
        <mxCell id="EDx5LjATlq7j0BT4Pbl9-11" value="&lt;font style=&quot;vertical-align: inherit;&quot; dir=&quot;auto&quot;&gt;&lt;font style=&quot;vertical-align: inherit;&quot; dir=&quot;auto&quot;&gt;id_trabalho&lt;/font&gt;&lt;/font&gt;" style="text;html=1;align=center;verticalAlign=middle;resizable=0;points=[];autosize=1;strokeColor=none;fillColor=none;" vertex="1" parent="EDx5LjATlq7j0BT4Pbl9-3">
          <mxGeometry y="30" width="80" height="30" as="geometry" />
        </mxCell>
        <mxCell id="EDx5LjATlq7j0BT4Pbl9-12" value="&lt;font style=&quot;vertical-align: inherit;&quot; dir=&quot;auto&quot;&gt;&lt;font style=&quot;vertical-align: inherit;&quot; dir=&quot;auto&quot;&gt;id_aluno&lt;/font&gt;&lt;/font&gt;" style="text;html=1;align=center;verticalAlign=middle;resizable=0;points=[];autosize=1;strokeColor=none;fillColor=none;" vertex="1" parent="EDx5LjATlq7j0BT4Pbl9-3">
          <mxGeometry y="60" width="70" height="30" as="geometry" />
        </mxCell>
        <mxCell id="EDx5LjATlq7j0BT4Pbl9-13" value="&lt;font style=&quot;vertical-align: inherit;&quot; dir=&quot;auto&quot;&gt;&lt;font style=&quot;vertical-align: inherit;&quot; dir=&quot;auto&quot;&gt;nota&lt;/font&gt;&lt;/font&gt;" style="text;html=1;align=center;verticalAlign=middle;resizable=0;points=[];autosize=1;strokeColor=none;fillColor=none;" vertex="1" parent="EDx5LjATlq7j0BT4Pbl9-3">
          <mxGeometry y="85" width="50" height="30" as="geometry" />
        </mxCell>
        <mxCell id="EDx5LjATlq7j0BT4Pbl9-6" style="edgeStyle=orthogonalEdgeStyle;rounded=0;orthogonalLoop=1;jettySize=auto;html=1;" edge="1" parent="1" source="EDx5LjATlq7j0BT4Pbl9-4">
          <mxGeometry relative="1" as="geometry">
            <mxPoint x="230" y="70" as="targetPoint" />
          </mxGeometry>
        </mxCell>
        <mxCell id="EDx5LjATlq7j0BT4Pbl9-20" value="&lt;font style=&quot;vertical-align: inherit;&quot; dir=&quot;auto&quot;&gt;&lt;font style=&quot;vertical-align: inherit;&quot; dir=&quot;auto&quot;&gt;1&lt;/font&gt;&lt;/font&gt;" style="edgeLabel;html=1;align=center;verticalAlign=middle;resizable=0;points=[];" vertex="1" connectable="0" parent="EDx5LjATlq7j0BT4Pbl9-6">
          <mxGeometry x="0.7227" y="-1" relative="1" as="geometry">
            <mxPoint x="-1" as="offset" />
          </mxGeometry>
        </mxCell>
        <mxCell id="EDx5LjATlq7j0BT4Pbl9-19" style="edgeStyle=orthogonalEdgeStyle;rounded=0;orthogonalLoop=1;jettySize=auto;html=1;exitX=1;exitY=0.5;exitDx=0;exitDy=0;" edge="1" parent="1" source="EDx5LjATlq7j0BT4Pbl9-4">
          <mxGeometry relative="1" as="geometry">
            <mxPoint x="550" y="70" as="targetPoint" />
          </mxGeometry>
        </mxCell>
        <mxCell id="EDx5LjATlq7j0BT4Pbl9-21" value="&lt;font style=&quot;vertical-align: inherit;&quot; dir=&quot;auto&quot;&gt;&lt;font style=&quot;vertical-align: inherit;&quot; dir=&quot;auto&quot;&gt;N&lt;/font&gt;&lt;/font&gt;" style="edgeLabel;html=1;align=center;verticalAlign=middle;resizable=0;points=[];" vertex="1" connectable="0" parent="EDx5LjATlq7j0BT4Pbl9-19">
          <mxGeometry x="0.6666" y="-2" relative="1" as="geometry">
            <mxPoint as="offset" />
          </mxGeometry>
        </mxCell>
        <mxCell id="EDx5LjATlq7j0BT4Pbl9-4" value="&lt;font style=&quot;vertical-align: inherit;&quot; dir=&quot;auto&quot;&gt;&lt;font style=&quot;vertical-align: inherit;&quot; dir=&quot;auto&quot;&gt;FAZ&lt;/font&gt;&lt;/font&gt;" style="rhombus;whiteSpace=wrap;html=1;" vertex="1" parent="1">
          <mxGeometry x="360" y="30" width="80" height="80" as="geometry" />
        </mxCell>
        <mxCell id="EDx5LjATlq7j0BT4Pbl9-14" value="&lt;font style=&quot;vertical-align: inherit;&quot; dir=&quot;auto&quot;&gt;&lt;font style=&quot;vertical-align: inherit;&quot; dir=&quot;auto&quot;&gt;&lt;font style=&quot;vertical-align: inherit;&quot; dir=&quot;auto&quot;&gt;&lt;font style=&quot;vertical-align: inherit;&quot; dir=&quot;auto&quot;&gt;ALUNO&lt;/font&gt;&lt;/font&gt;&lt;/font&gt;&lt;/font&gt;" style="rounded=0;whiteSpace=wrap;html=1;" vertex="1" parent="1">
          <mxGeometry x="110" y="50" width="120" height="60" as="geometry" />
        </mxCell>
        <mxCell id="EDx5LjATlq7j0BT4Pbl9-16" value="&lt;font style=&quot;vertical-align: inherit;&quot; dir=&quot;auto&quot;&gt;&lt;font style=&quot;vertical-align: inherit;&quot; dir=&quot;auto&quot;&gt;TRABALHO&lt;/font&gt;&lt;/font&gt;" style="rounded=1;whiteSpace=wrap;html=1;" vertex="1" parent="1">
          <mxGeometry x="550" y="50" width="120" height="60" as="geometry" />
        </mxCell>
        <mxCell id="EDx5LjATlq7j0BT4Pbl9-22" value="" style="endArrow=none;html=1;rounded=0;edgeStyle=orthogonalEdgeStyle;entryX=0;entryY=0.75;entryDx=0;entryDy=0;startArrow=oval;startFill=1;" edge="1" parent="1" target="EDx5LjATlq7j0BT4Pbl9-14">
          <mxGeometry width="50" height="50" relative="1" as="geometry">
            <mxPoint x="50" y="191" as="sourcePoint" />
            <mxPoint x="-10" y="90" as="targetPoint" />
            <Array as="points">
              <mxPoint x="50" y="192" />
              <mxPoint x="-9" y="192" />
              <mxPoint x="-9" y="95" />
            </Array>
          </mxGeometry>
        </mxCell>
        <mxCell id="EDx5LjATlq7j0BT4Pbl9-23" value="" style="endArrow=none;html=1;rounded=0;edgeStyle=orthogonalEdgeStyle;startArrow=oval;startFill=0;" edge="1" parent="1" target="EDx5LjATlq7j0BT4Pbl9-16">
          <mxGeometry width="50" height="50" relative="1" as="geometry">
            <mxPoint x="690" y="230" as="sourcePoint" />
            <mxPoint x="730" y="70" as="targetPoint" />
            <Array as="points">
              <mxPoint x="680" y="230" />
              <mxPoint x="680" y="231" />
              <mxPoint x="741" y="231" />
              <mxPoint x="741" y="80" />
            </Array>
          </mxGeometry>
        </mxCell>
        <mxCell id="EDx5LjATlq7j0BT4Pbl9-24" value="" style="endArrow=none;html=1;rounded=0;startArrow=oval;startFill=1;edgeStyle=orthogonalEdgeStyle;entryX=1;entryY=0.75;entryDx=0;entryDy=0;" edge="1" parent="1" target="EDx5LjATlq7j0BT4Pbl9-16">
          <mxGeometry width="50" height="50" relative="1" as="geometry">
            <mxPoint x="690" y="190" as="sourcePoint" />
            <mxPoint x="710" y="100" as="targetPoint" />
            <Array as="points">
              <mxPoint x="680" y="190" />
              <mxPoint x="680" y="191" />
              <mxPoint x="731" y="191" />
              <mxPoint x="731" y="95" />
            </Array>
          </mxGeometry>
        </mxCell>
        <mxCell id="EDx5LjATlq7j0BT4Pbl9-26" value="" style="endArrow=none;html=1;rounded=0;edgeStyle=orthogonalEdgeStyle;entryX=0;entryY=0;entryDx=0;entryDy=0;startArrow=none;startFill=0;" edge="1" parent="1" target="EDx5LjATlq7j0BT4Pbl9-14">
          <mxGeometry width="50" height="50" relative="1" as="geometry">
            <mxPoint x="50" y="240" as="sourcePoint" />
            <mxPoint x="-51" y="40" as="targetPoint" />
            <Array as="points">
              <mxPoint x="-50" y="240" />
              <mxPoint x="-50" y="50" />
            </Array>
          </mxGeometry>
        </mxCell>
        <mxCell id="EDx5LjATlq7j0BT4Pbl9-27" value="" style="endArrow=none;html=1;rounded=0;edgeStyle=orthogonalEdgeStyle;entryX=0;entryY=0.25;entryDx=0;entryDy=0;startArrow=none;startFill=0;exitX=0;exitY=0.5;exitDx=0;exitDy=0;" edge="1" parent="1" source="EDx5LjATlq7j0BT4Pbl9-2" target="EDx5LjATlq7j0BT4Pbl9-14">
          <mxGeometry width="50" height="50" relative="1" as="geometry">
            <mxPoint x="-60" y="220" as="sourcePoint" />
            <mxPoint x="-10" y="70" as="targetPoint" />
            <Array as="points">
              <mxPoint x="-30" y="225" />
              <mxPoint x="-30" y="70" />
              <mxPoint x="110" y="70" />
            </Array>
          </mxGeometry>
        </mxCell>
        <mxCell id="EDx5LjATlq7j0BT4Pbl9-28" value="" style="endArrow=none;html=1;rounded=0;edgeStyle=orthogonalEdgeStyle;startArrow=none;startFill=0;" edge="1" parent="1">
          <mxGeometry width="50" height="50" relative="1" as="geometry">
            <mxPoint x="690" y="250" as="sourcePoint" />
            <mxPoint x="670" y="100" as="targetPoint" />
            <Array as="points">
              <mxPoint x="680" y="250" />
              <mxPoint x="680" y="251" />
              <mxPoint x="741" y="251" />
              <mxPoint x="741" y="70" />
              <mxPoint x="670" y="70" />
            </Array>
          </mxGeometry>
        </mxCell>
        <mxCell id="EDx5LjATlq7j0BT4Pbl9-29" value="EXERCÃCIO 1" style="text;html=1;align=center;verticalAlign=middle;resizable=0;points=[];autosize=1;strokeColor=none;fillColor=none;" vertex="1" parent="1">
          <mxGeometry x="340" y="-30" width="100" height="30" as="geometry" />
        </mxCell>
        <mxCell id="EDx5LjATlq7j0BT4Pbl9-30" value="EXERCÃCIO 2" style="text;html=1;align=center;verticalAlign=middle;resizable=0;points=[];autosize=1;strokeColor=none;fillColor=none;" vertex="1" parent="1">
          <mxGeometry x="330" y="370" width="100" height="30" as="geometry" />
        </mxCell>
        <mxCell id="EDx5LjATlq7j0BT4Pbl9-31" value="&lt;font style=&quot;vertical-align: inherit;&quot; dir=&quot;auto&quot;&gt;&lt;font style=&quot;vertical-align: inherit;&quot; dir=&quot;auto&quot;&gt;&lt;font style=&quot;vertical-align: inherit;&quot; dir=&quot;auto&quot;&gt;&lt;font style=&quot;vertical-align: inherit;&quot; dir=&quot;auto&quot;&gt;atributos&lt;/font&gt;&lt;/font&gt;&lt;span style=&quot;white-space: pre;&quot;&gt;&#x9;&lt;/span&gt;&lt;/font&gt;&lt;/font&gt;" style="swimlane;whiteSpace=wrap;html=1;" vertex="1" parent="1">
          <mxGeometry x="30" y="530" width="140" height="150" as="geometry" />
        </mxCell>
        <mxCell id="EDx5LjATlq7j0BT4Pbl9-32" value="&lt;font style=&quot;vertical-align: inherit;&quot; dir=&quot;auto&quot;&gt;&lt;font style=&quot;vertical-align: inherit;&quot; dir=&quot;auto&quot;&gt;&lt;font style=&quot;vertical-align: inherit;&quot; dir=&quot;auto&quot;&gt;&lt;font style=&quot;vertical-align: inherit;&quot; dir=&quot;auto&quot;&gt;nome&lt;/font&gt;&lt;/font&gt;&lt;/font&gt;&lt;/font&gt;" style="text;html=1;align=center;verticalAlign=middle;resizable=0;points=[];autosize=1;strokeColor=none;fillColor=none;" vertex="1" parent="EDx5LjATlq7j0BT4Pbl9-31">
          <mxGeometry x="11" y="50" width="50" height="30" as="geometry" />
        </mxCell>
        <mxCell id="EDx5LjATlq7j0BT4Pbl9-33" value="id_diretor" style="text;html=1;align=center;verticalAlign=middle;resizable=0;points=[];autosize=1;strokeColor=none;fillColor=none;" vertex="1" parent="EDx5LjATlq7j0BT4Pbl9-31">
          <mxGeometry x="9" y="30" width="70" height="30" as="geometry" />
        </mxCell>
        <mxCell id="EDx5LjATlq7j0BT4Pbl9-34" value="&lt;font style=&quot;vertical-align: inherit;&quot; dir=&quot;auto&quot;&gt;&lt;font style=&quot;vertical-align: inherit;&quot; dir=&quot;auto&quot;&gt;telefone&lt;/font&gt;&lt;/font&gt;" style="text;html=1;align=center;verticalAlign=middle;resizable=0;points=[];autosize=1;strokeColor=none;fillColor=none;" vertex="1" parent="EDx5LjATlq7j0BT4Pbl9-31">
          <mxGeometry x="1" y="72" width="70" height="30" as="geometry" />
        </mxCell>
        <mxCell id="EDx5LjATlq7j0BT4Pbl9-35" value="&lt;font style=&quot;vertical-align: inherit;&quot; dir=&quot;auto&quot;&gt;&lt;font style=&quot;vertical-align: inherit;&quot; dir=&quot;auto&quot;&gt;&lt;font style=&quot;vertical-align: inherit;&quot; dir=&quot;auto&quot;&gt;&lt;font style=&quot;vertical-align: inherit;&quot; dir=&quot;auto&quot;&gt;atributos&lt;/font&gt;&lt;/font&gt;&lt;/font&gt;&lt;/font&gt;" style="swimlane;whiteSpace=wrap;html=1;" vertex="1" parent="1">
          <mxGeometry x="520" y="530" width="140" height="160" as="geometry" />
        </mxCell>
        <mxCell id="EDx5LjATlq7j0BT4Pbl9-36" value="&lt;font style=&quot;vertical-align: inherit;&quot; dir=&quot;auto&quot;&gt;&lt;font style=&quot;vertical-align: inherit;&quot; dir=&quot;auto&quot;&gt;id_departamento&lt;/font&gt;&lt;/font&gt;" style="text;html=1;align=center;verticalAlign=middle;resizable=0;points=[];autosize=1;strokeColor=none;fillColor=none;" vertex="1" parent="EDx5LjATlq7j0BT4Pbl9-35">
          <mxGeometry y="30" width="110" height="30" as="geometry" />
        </mxCell>
        <mxCell id="EDx5LjATlq7j0BT4Pbl9-37" value="&lt;font style=&quot;vertical-align: inherit;&quot; dir=&quot;auto&quot;&gt;&lt;font style=&quot;vertical-align: inherit;&quot; dir=&quot;auto&quot;&gt;id_diretor&lt;/font&gt;&lt;/font&gt;" style="text;html=1;align=center;verticalAlign=middle;resizable=0;points=[];autosize=1;strokeColor=none;fillColor=none;" vertex="1" parent="EDx5LjATlq7j0BT4Pbl9-35">
          <mxGeometry y="60" width="70" height="30" as="geometry" />
        </mxCell>
        <mxCell id="EDx5LjATlq7j0BT4Pbl9-38" value="&lt;font style=&quot;vertical-align: inherit;&quot; dir=&quot;auto&quot;&gt;&lt;font style=&quot;vertical-align: inherit;&quot; dir=&quot;auto&quot;&gt;nome&lt;/font&gt;&lt;/font&gt;" style="text;html=1;align=center;verticalAlign=middle;resizable=0;points=[];autosize=1;strokeColor=none;fillColor=none;" vertex="1" parent="EDx5LjATlq7j0BT4Pbl9-35">
          <mxGeometry y="85" width="50" height="30" as="geometry" />
        </mxCell>
        <mxCell id="EDx5LjATlq7j0BT4Pbl9-39" style="edgeStyle=orthogonalEdgeStyle;rounded=0;orthogonalLoop=1;jettySize=auto;html=1;" edge="1" parent="1" source="EDx5LjATlq7j0BT4Pbl9-43">
          <mxGeometry relative="1" as="geometry">
            <mxPoint x="210" y="450" as="targetPoint" />
          </mxGeometry>
        </mxCell>
        <mxCell id="EDx5LjATlq7j0BT4Pbl9-40" value="&lt;font style=&quot;vertical-align: inherit;&quot; dir=&quot;auto&quot;&gt;&lt;font style=&quot;vertical-align: inherit;&quot; dir=&quot;auto&quot;&gt;1&lt;/font&gt;&lt;/font&gt;" style="edgeLabel;html=1;align=center;verticalAlign=middle;resizable=0;points=[];" vertex="1" connectable="0" parent="EDx5LjATlq7j0BT4Pbl9-39">
          <mxGeometry x="0.7227" y="-1" relative="1" as="geometry">
            <mxPoint x="-1" as="offset" />
          </mxGeometry>
        </mxCell>
        <mxCell id="EDx5LjATlq7j0BT4Pbl9-41" style="edgeStyle=orthogonalEdgeStyle;rounded=0;orthogonalLoop=1;jettySize=auto;html=1;exitX=1;exitY=0.5;exitDx=0;exitDy=0;" edge="1" parent="1" source="EDx5LjATlq7j0BT4Pbl9-43">
          <mxGeometry relative="1" as="geometry">
            <mxPoint x="530" y="450" as="targetPoint" />
          </mxGeometry>
        </mxCell>
        <mxCell id="EDx5LjATlq7j0BT4Pbl9-42" value="1" style="edgeLabel;html=1;align=center;verticalAlign=middle;resizable=0;points=[];" vertex="1" connectable="0" parent="EDx5LjATlq7j0BT4Pbl9-41">
          <mxGeometry x="0.6666" y="-2" relative="1" as="geometry">
            <mxPoint as="offset" />
          </mxGeometry>
        </mxCell>
        <mxCell id="EDx5LjATlq7j0BT4Pbl9-43" value="&lt;font style=&quot;vertical-align: inherit;&quot; dir=&quot;auto&quot;&gt;&lt;font style=&quot;vertical-align: inherit;&quot; dir=&quot;auto&quot;&gt;TEM&lt;/font&gt;&lt;/font&gt;" style="rhombus;whiteSpace=wrap;html=1;" vertex="1" parent="1">
          <mxGeometry x="340" y="410" width="80" height="80" as="geometry" />
        </mxCell>
        <mxCell id="EDx5LjATlq7j0BT4Pbl9-44" value="&lt;font style=&quot;vertical-align: inherit;&quot; dir=&quot;auto&quot;&gt;&lt;font style=&quot;vertical-align: inherit;&quot; dir=&quot;auto&quot;&gt;&lt;font style=&quot;vertical-align: inherit;&quot; dir=&quot;auto&quot;&gt;&lt;font style=&quot;vertical-align: inherit;&quot; dir=&quot;auto&quot;&gt;DIRETOR&lt;/font&gt;&lt;/font&gt;&lt;/font&gt;&lt;/font&gt;" style="rounded=0;whiteSpace=wrap;html=1;" vertex="1" parent="1">
          <mxGeometry x="90" y="430" width="120" height="60" as="geometry" />
        </mxCell>
        <mxCell id="EDx5LjATlq7j0BT4Pbl9-45" value="&lt;font style=&quot;vertical-align: inherit;&quot; dir=&quot;auto&quot;&gt;&lt;font style=&quot;vertical-align: inherit;&quot; dir=&quot;auto&quot;&gt;DEPARTAMENTO&lt;/font&gt;&lt;/font&gt;" style="rounded=1;whiteSpace=wrap;html=1;" vertex="1" parent="1">
          <mxGeometry x="530" y="430" width="120" height="60" as="geometry" />
        </mxCell>
        <mxCell id="EDx5LjATlq7j0BT4Pbl9-46" value="" style="endArrow=none;html=1;rounded=0;edgeStyle=orthogonalEdgeStyle;entryX=0;entryY=0.75;entryDx=0;entryDy=0;startArrow=oval;startFill=1;" edge="1" parent="1" target="EDx5LjATlq7j0BT4Pbl9-44">
          <mxGeometry width="50" height="50" relative="1" as="geometry">
            <mxPoint x="30" y="571" as="sourcePoint" />
            <mxPoint x="-30" y="470" as="targetPoint" />
            <Array as="points">
              <mxPoint x="30" y="572" />
              <mxPoint x="-29" y="572" />
              <mxPoint x="-29" y="475" />
            </Array>
          </mxGeometry>
        </mxCell>
        <mxCell id="EDx5LjATlq7j0BT4Pbl9-47" value="" style="endArrow=none;html=1;rounded=0;edgeStyle=orthogonalEdgeStyle;startArrow=oval;startFill=0;" edge="1" parent="1" target="EDx5LjATlq7j0BT4Pbl9-45">
          <mxGeometry width="50" height="50" relative="1" as="geometry">
            <mxPoint x="670" y="610" as="sourcePoint" />
            <mxPoint x="710" y="450" as="targetPoint" />
            <Array as="points">
              <mxPoint x="660" y="610" />
              <mxPoint x="660" y="611" />
              <mxPoint x="721" y="611" />
              <mxPoint x="721" y="460" />
            </Array>
          </mxGeometry>
        </mxCell>
        <mxCell id="EDx5LjATlq7j0BT4Pbl9-48" value="" style="endArrow=none;html=1;rounded=0;startArrow=oval;startFill=1;edgeStyle=orthogonalEdgeStyle;entryX=1;entryY=0.75;entryDx=0;entryDy=0;" edge="1" parent="1" target="EDx5LjATlq7j0BT4Pbl9-45">
          <mxGeometry width="50" height="50" relative="1" as="geometry">
            <mxPoint x="670" y="570" as="sourcePoint" />
            <mxPoint x="690" y="480" as="targetPoint" />
            <Array as="points">
              <mxPoint x="660" y="570" />
              <mxPoint x="660" y="571" />
              <mxPoint x="711" y="571" />
              <mxPoint x="711" y="475" />
            </Array>
          </mxGeometry>
        </mxCell>
        <mxCell id="EDx5LjATlq7j0BT4Pbl9-49" value="" style="endArrow=none;html=1;rounded=0;edgeStyle=orthogonalEdgeStyle;entryX=0;entryY=0;entryDx=0;entryDy=0;startArrow=none;startFill=0;" edge="1" parent="1" target="EDx5LjATlq7j0BT4Pbl9-44">
          <mxGeometry width="50" height="50" relative="1" as="geometry">
            <mxPoint x="30" y="620" as="sourcePoint" />
            <mxPoint x="-71" y="420" as="targetPoint" />
            <Array as="points">
              <mxPoint x="-70" y="620" />
              <mxPoint x="-70" y="430" />
            </Array>
          </mxGeometry>
        </mxCell>
        <mxCell id="EDx5LjATlq7j0BT4Pbl9-50" value="" style="endArrow=none;html=1;rounded=0;edgeStyle=orthogonalEdgeStyle;entryX=0;entryY=0.25;entryDx=0;entryDy=0;startArrow=none;startFill=0;exitX=0;exitY=0.5;exitDx=0;exitDy=0;" edge="1" parent="1" source="EDx5LjATlq7j0BT4Pbl9-31" target="EDx5LjATlq7j0BT4Pbl9-44">
          <mxGeometry width="50" height="50" relative="1" as="geometry">
            <mxPoint x="-80" y="600" as="sourcePoint" />
            <mxPoint x="-30" y="450" as="targetPoint" />
            <Array as="points">
              <mxPoint x="-50" y="605" />
              <mxPoint x="-50" y="450" />
              <mxPoint x="90" y="450" />
            </Array>
          </mxGeometry>
        </mxCell>
        <mxCell id="EDx5LjATlq7j0BT4Pbl9-51" value="" style="endArrow=none;html=1;rounded=0;edgeStyle=orthogonalEdgeStyle;startArrow=none;startFill=0;" edge="1" parent="1">
          <mxGeometry width="50" height="50" relative="1" as="geometry">
            <mxPoint x="670" y="630" as="sourcePoint" />
            <mxPoint x="650" y="480" as="targetPoint" />
            <Array as="points">
              <mxPoint x="660" y="630" />
              <mxPoint x="660" y="631" />
              <mxPoint x="721" y="631" />
              <mxPoint x="721" y="450" />
              <mxPoint x="650" y="450" />
            </Array>
          </mxGeometry>
        </mxCell>
        <mxCell id="EDx5LjATlq7j0BT4Pbl9-53" value="ExercÃ­cio 3" style="text;html=1;align=center;verticalAlign=middle;resizable=0;points=[];autosize=1;strokeColor=none;fillColor=none;" vertex="1" parent="1">
          <mxGeometry x="280" y="810" width="80" height="30" as="geometry" />
        </mxCell>
        <mxCell id="EDx5LjATlq7j0BT4Pbl9-55" value="&lt;font style=&quot;vertical-align: inherit;&quot; dir=&quot;auto&quot;&gt;&lt;font style=&quot;vertical-align: inherit;&quot; dir=&quot;auto&quot;&gt;&lt;font style=&quot;vertical-align: inherit;&quot; dir=&quot;auto&quot;&gt;&lt;font style=&quot;vertical-align: inherit;&quot; dir=&quot;auto&quot;&gt;atributos&lt;/font&gt;&lt;/font&gt;&lt;span style=&quot;white-space: pre;&quot;&gt;&#x9;&lt;/span&gt;&lt;/font&gt;&lt;/font&gt;" style="swimlane;whiteSpace=wrap;html=1;" vertex="1" parent="1">
          <mxGeometry x="-31" y="982" width="140" height="150" as="geometry" />
        </mxCell>
        <mxCell id="EDx5LjATlq7j0BT4Pbl9-56" value="&lt;font style=&quot;vertical-align: inherit;&quot; dir=&quot;auto&quot;&gt;&lt;font style=&quot;vertical-align: inherit;&quot; dir=&quot;auto&quot;&gt;&lt;font style=&quot;vertical-align: inherit;&quot; dir=&quot;auto&quot;&gt;&lt;font style=&quot;vertical-align: inherit;&quot; dir=&quot;auto&quot;&gt;nome&lt;/font&gt;&lt;/font&gt;&lt;/font&gt;&lt;/font&gt;" style="text;html=1;align=center;verticalAlign=middle;resizable=0;points=[];autosize=1;strokeColor=none;fillColor=none;" vertex="1" parent="EDx5LjATlq7j0BT4Pbl9-55">
          <mxGeometry x="11" y="50" width="50" height="30" as="geometry" />
        </mxCell>
        <mxCell id="EDx5LjATlq7j0BT4Pbl9-57" value="id_autor" style="text;html=1;align=center;verticalAlign=middle;resizable=0;points=[];autosize=1;strokeColor=none;fillColor=none;" vertex="1" parent="EDx5LjATlq7j0BT4Pbl9-55">
          <mxGeometry x="9" y="30" width="70" height="30" as="geometry" />
        </mxCell>
        <mxCell id="EDx5LjATlq7j0BT4Pbl9-58" value="&lt;font style=&quot;vertical-align: inherit;&quot; dir=&quot;auto&quot;&gt;&lt;font style=&quot;vertical-align: inherit;&quot; dir=&quot;auto&quot;&gt;EndereÃ§o&lt;/font&gt;&lt;/font&gt;" style="text;html=1;align=center;verticalAlign=middle;resizable=0;points=[];autosize=1;strokeColor=none;fillColor=none;" vertex="1" parent="EDx5LjATlq7j0BT4Pbl9-55">
          <mxGeometry x="1" y="72" width="70" height="30" as="geometry" />
        </mxCell>
        <mxCell id="EDx5LjATlq7j0BT4Pbl9-59" value="&lt;font style=&quot;vertical-align: inherit;&quot; dir=&quot;auto&quot;&gt;&lt;font style=&quot;vertical-align: inherit;&quot; dir=&quot;auto&quot;&gt;&lt;font style=&quot;vertical-align: inherit;&quot; dir=&quot;auto&quot;&gt;&lt;font style=&quot;vertical-align: inherit;&quot; dir=&quot;auto&quot;&gt;atributos&lt;/font&gt;&lt;/font&gt;&lt;/font&gt;&lt;/font&gt;" style="swimlane;whiteSpace=wrap;html=1;" vertex="1" parent="1">
          <mxGeometry x="459" y="982" width="140" height="160" as="geometry" />
        </mxCell>
        <mxCell id="EDx5LjATlq7j0BT4Pbl9-60" value="&lt;font style=&quot;vertical-align: inherit;&quot; dir=&quot;auto&quot;&gt;&lt;font style=&quot;vertical-align: inherit;&quot; dir=&quot;auto&quot;&gt;id_livro&lt;/font&gt;&lt;/font&gt;" style="text;html=1;align=center;verticalAlign=middle;resizable=0;points=[];autosize=1;strokeColor=none;fillColor=none;" vertex="1" parent="EDx5LjATlq7j0BT4Pbl9-59">
          <mxGeometry x="5" y="30" width="60" height="30" as="geometry" />
        </mxCell>
        <mxCell id="EDx5LjATlq7j0BT4Pbl9-61" value="&lt;font style=&quot;vertical-align: inherit;&quot; dir=&quot;auto&quot;&gt;&lt;font style=&quot;vertical-align: inherit;&quot; dir=&quot;auto&quot;&gt;id_autor&lt;/font&gt;&lt;/font&gt;" style="text;html=1;align=center;verticalAlign=middle;resizable=0;points=[];autosize=1;strokeColor=none;fillColor=none;" vertex="1" parent="EDx5LjATlq7j0BT4Pbl9-59">
          <mxGeometry y="60" width="70" height="30" as="geometry" />
        </mxCell>
        <mxCell id="EDx5LjATlq7j0BT4Pbl9-62" value="&lt;font style=&quot;vertical-align: inherit;&quot; dir=&quot;auto&quot;&gt;&lt;font style=&quot;vertical-align: inherit;&quot; dir=&quot;auto&quot;&gt;tÃ­tulo&lt;/font&gt;&lt;/font&gt;" style="text;html=1;align=center;verticalAlign=middle;resizable=0;points=[];autosize=1;strokeColor=none;fillColor=none;" vertex="1" parent="EDx5LjATlq7j0BT4Pbl9-59">
          <mxGeometry y="85" width="50" height="30" as="geometry" />
        </mxCell>
        <mxCell id="EDx5LjATlq7j0BT4Pbl9-77" value="editora" style="text;html=1;align=center;verticalAlign=middle;resizable=0;points=[];autosize=1;strokeColor=none;fillColor=none;" vertex="1" parent="EDx5LjATlq7j0BT4Pbl9-59">
          <mxGeometry y="108" width="60" height="30" as="geometry" />
        </mxCell>
        <mxCell id="EDx5LjATlq7j0BT4Pbl9-78" value="preÃ§o" style="text;html=1;align=center;verticalAlign=middle;resizable=0;points=[];autosize=1;strokeColor=none;fillColor=none;" vertex="1" parent="EDx5LjATlq7j0BT4Pbl9-59">
          <mxGeometry x="5" y="130" width="50" height="30" as="geometry" />
        </mxCell>
        <mxCell id="EDx5LjATlq7j0BT4Pbl9-63" style="edgeStyle=orthogonalEdgeStyle;rounded=0;orthogonalLoop=1;jettySize=auto;html=1;" edge="1" parent="1" source="EDx5LjATlq7j0BT4Pbl9-67">
          <mxGeometry relative="1" as="geometry">
            <mxPoint x="149" y="902" as="targetPoint" />
          </mxGeometry>
        </mxCell>
        <mxCell id="EDx5LjATlq7j0BT4Pbl9-64" value="N" style="edgeLabel;html=1;align=center;verticalAlign=middle;resizable=0;points=[];" vertex="1" connectable="0" parent="EDx5LjATlq7j0BT4Pbl9-63">
          <mxGeometry x="0.7227" y="-1" relative="1" as="geometry">
            <mxPoint x="-1" as="offset" />
          </mxGeometry>
        </mxCell>
        <mxCell id="EDx5LjATlq7j0BT4Pbl9-65" style="edgeStyle=orthogonalEdgeStyle;rounded=0;orthogonalLoop=1;jettySize=auto;html=1;exitX=1;exitY=0.5;exitDx=0;exitDy=0;" edge="1" parent="1" source="EDx5LjATlq7j0BT4Pbl9-67">
          <mxGeometry relative="1" as="geometry">
            <mxPoint x="469" y="902" as="targetPoint" />
          </mxGeometry>
        </mxCell>
        <mxCell id="EDx5LjATlq7j0BT4Pbl9-66" value="N" style="edgeLabel;html=1;align=center;verticalAlign=middle;resizable=0;points=[];" vertex="1" connectable="0" parent="EDx5LjATlq7j0BT4Pbl9-65">
          <mxGeometry x="0.6666" y="-2" relative="1" as="geometry">
            <mxPoint as="offset" />
          </mxGeometry>
        </mxCell>
        <mxCell id="EDx5LjATlq7j0BT4Pbl9-67" value="&lt;font style=&quot;vertical-align: inherit;&quot; dir=&quot;auto&quot;&gt;&lt;font style=&quot;vertical-align: inherit;&quot; dir=&quot;auto&quot;&gt;ESCREVER&lt;/font&gt;&lt;/font&gt;" style="rhombus;whiteSpace=wrap;html=1;" vertex="1" parent="1">
          <mxGeometry x="279" y="862" width="80" height="80" as="geometry" />
        </mxCell>
        <mxCell id="EDx5LjATlq7j0BT4Pbl9-68" value="&lt;font style=&quot;vertical-align: inherit;&quot; dir=&quot;auto&quot;&gt;&lt;font style=&quot;vertical-align: inherit;&quot; dir=&quot;auto&quot;&gt;&lt;font style=&quot;vertical-align: inherit;&quot; dir=&quot;auto&quot;&gt;&lt;font style=&quot;vertical-align: inherit;&quot; dir=&quot;auto&quot;&gt;AUTOR&lt;/font&gt;&lt;/font&gt;&lt;/font&gt;&lt;/font&gt;" style="rounded=0;whiteSpace=wrap;html=1;" vertex="1" parent="1">
          <mxGeometry x="29" y="882" width="120" height="60" as="geometry" />
        </mxCell>
        <mxCell id="EDx5LjATlq7j0BT4Pbl9-69" value="&lt;font style=&quot;vertical-align: inherit;&quot; dir=&quot;auto&quot;&gt;&lt;font style=&quot;vertical-align: inherit;&quot; dir=&quot;auto&quot;&gt;LIVROS&lt;/font&gt;&lt;/font&gt;" style="rounded=1;whiteSpace=wrap;html=1;" vertex="1" parent="1">
          <mxGeometry x="469" y="882" width="120" height="60" as="geometry" />
        </mxCell>
        <mxCell id="EDx5LjATlq7j0BT4Pbl9-70" value="" style="endArrow=none;html=1;rounded=0;edgeStyle=orthogonalEdgeStyle;entryX=0;entryY=0.75;entryDx=0;entryDy=0;startArrow=oval;startFill=1;" edge="1" parent="1" target="EDx5LjATlq7j0BT4Pbl9-68">
          <mxGeometry width="50" height="50" relative="1" as="geometry">
            <mxPoint x="-31" y="1023" as="sourcePoint" />
            <mxPoint x="-91" y="922" as="targetPoint" />
            <Array as="points">
              <mxPoint x="-31" y="1024" />
              <mxPoint x="-90" y="1024" />
              <mxPoint x="-90" y="927" />
            </Array>
          </mxGeometry>
        </mxCell>
        <mxCell id="EDx5LjATlq7j0BT4Pbl9-71" value="" style="endArrow=none;html=1;rounded=0;edgeStyle=orthogonalEdgeStyle;startArrow=oval;startFill=0;" edge="1" parent="1" target="EDx5LjATlq7j0BT4Pbl9-69">
          <mxGeometry width="50" height="50" relative="1" as="geometry">
            <mxPoint x="609" y="1062" as="sourcePoint" />
            <mxPoint x="649" y="902" as="targetPoint" />
            <Array as="points">
              <mxPoint x="599" y="1062" />
              <mxPoint x="599" y="1063" />
              <mxPoint x="650" y="1063" />
              <mxPoint x="650" y="912" />
            </Array>
          </mxGeometry>
        </mxCell>
        <mxCell id="EDx5LjATlq7j0BT4Pbl9-72" value="" style="endArrow=none;html=1;rounded=0;startArrow=oval;startFill=1;edgeStyle=orthogonalEdgeStyle;entryX=1;entryY=0.75;entryDx=0;entryDy=0;" edge="1" parent="1" target="EDx5LjATlq7j0BT4Pbl9-69">
          <mxGeometry width="50" height="50" relative="1" as="geometry">
            <mxPoint x="609" y="1022" as="sourcePoint" />
            <mxPoint x="629" y="932" as="targetPoint" />
            <Array as="points">
              <mxPoint x="599" y="1022" />
              <mxPoint x="599" y="1023" />
              <mxPoint x="640" y="1023" />
              <mxPoint x="640" y="927" />
            </Array>
          </mxGeometry>
        </mxCell>
        <mxCell id="EDx5LjATlq7j0BT4Pbl9-73" value="" style="endArrow=none;html=1;rounded=0;edgeStyle=orthogonalEdgeStyle;entryX=0;entryY=0;entryDx=0;entryDy=0;startArrow=none;startFill=0;" edge="1" parent="1" target="EDx5LjATlq7j0BT4Pbl9-68">
          <mxGeometry width="50" height="50" relative="1" as="geometry">
            <mxPoint x="-31" y="1072" as="sourcePoint" />
            <mxPoint x="-132" y="872" as="targetPoint" />
            <Array as="points">
              <mxPoint x="-131" y="1072" />
              <mxPoint x="-131" y="882" />
            </Array>
          </mxGeometry>
        </mxCell>
        <mxCell id="EDx5LjATlq7j0BT4Pbl9-74" value="" style="endArrow=none;html=1;rounded=0;edgeStyle=orthogonalEdgeStyle;entryX=0;entryY=0.25;entryDx=0;entryDy=0;startArrow=none;startFill=0;exitX=0;exitY=0.5;exitDx=0;exitDy=0;" edge="1" parent="1" source="EDx5LjATlq7j0BT4Pbl9-55" target="EDx5LjATlq7j0BT4Pbl9-68">
          <mxGeometry width="50" height="50" relative="1" as="geometry">
            <mxPoint x="-141" y="1052" as="sourcePoint" />
            <mxPoint x="-91" y="902" as="targetPoint" />
            <Array as="points">
              <mxPoint x="-111" y="1057" />
              <mxPoint x="-111" y="902" />
              <mxPoint x="29" y="902" />
            </Array>
          </mxGeometry>
        </mxCell>
        <mxCell id="EDx5LjATlq7j0BT4Pbl9-75" value="" style="endArrow=none;html=1;rounded=0;edgeStyle=orthogonalEdgeStyle;startArrow=none;startFill=0;" edge="1" parent="1">
          <mxGeometry width="50" height="50" relative="1" as="geometry">
            <mxPoint x="599" y="1083" as="sourcePoint" />
            <mxPoint x="589" y="932" as="targetPoint" />
            <Array as="points">
              <mxPoint x="599" y="1082" />
              <mxPoint x="599" y="1083" />
              <mxPoint x="660" y="1083" />
              <mxPoint x="660" y="902" />
              <mxPoint x="589" y="902" />
            </Array>
          </mxGeometry>
        </mxCell>
        <mxCell id="EDx5LjATlq7j0BT4Pbl9-79" value="" style="endArrow=none;html=1;rounded=0;edgeStyle=orthogonalEdgeStyle;startArrow=none;startFill=0;entryX=0.97;entryY=0.14;entryDx=0;entryDy=0;entryPerimeter=0;" edge="1" parent="1">
          <mxGeometry width="50" height="50" relative="1" as="geometry">
            <mxPoint x="601" y="1111" as="sourcePoint" />
            <mxPoint x="588.4000000000001" y="890.4000000000001" as="targetPoint" />
            <Array as="points">
              <mxPoint x="601" y="1110" />
              <mxPoint x="600" y="1110" />
              <mxPoint x="600" y="1111" />
              <mxPoint x="670" y="1111" />
              <mxPoint x="670" y="890" />
            </Array>
          </mxGeometry>
        </mxCell>
        <mxCell id="EDx5LjATlq7j0BT4Pbl9-81" value="" style="endArrow=none;html=1;rounded=0;edgeStyle=orthogonalEdgeStyle;startArrow=none;startFill=0;" edge="1" parent="1">
          <mxGeometry width="50" height="50" relative="1" as="geometry">
            <mxPoint x="598" y="1130" as="sourcePoint" />
            <mxPoint x="580" y="880" as="targetPoint" />
            <Array as="points">
              <mxPoint x="610" y="1130" />
              <mxPoint x="680" y="1130" />
              <mxPoint x="680" y="882" />
            </Array>
          </mxGeometry>
        </mxCell>
        <mxCell id="EDx5LjATlq7j0BT4Pbl9-82" value="ExercÃ­cio 4" style="text;html=1;align=center;verticalAlign=middle;resizable=0;points=[];autosize=1;strokeColor=none;fillColor=none;" vertex="1" parent="1">
          <mxGeometry x="261" y="1240" width="80" height="30" as="geometry" />
        </mxCell>
        <mxCell id="EDx5LjATlq7j0BT4Pbl9-83" value="&lt;font style=&quot;vertical-align: inherit;&quot; dir=&quot;auto&quot;&gt;&lt;font style=&quot;vertical-align: inherit;&quot; dir=&quot;auto&quot;&gt;&lt;font style=&quot;vertical-align: inherit;&quot; dir=&quot;auto&quot;&gt;&lt;font style=&quot;vertical-align: inherit;&quot; dir=&quot;auto&quot;&gt;atributos&lt;/font&gt;&lt;/font&gt;&lt;span style=&quot;white-space: pre;&quot;&gt;&#x9;&lt;/span&gt;&lt;/font&gt;&lt;/font&gt;" style="swimlane;whiteSpace=wrap;html=1;" vertex="1" parent="1">
          <mxGeometry x="-50" y="1412" width="140" height="150" as="geometry" />
        </mxCell>
        <mxCell id="EDx5LjATlq7j0BT4Pbl9-84" value="&lt;font style=&quot;vertical-align: inherit;&quot; dir=&quot;auto&quot;&gt;&lt;font style=&quot;vertical-align: inherit;&quot; dir=&quot;auto&quot;&gt;&lt;font style=&quot;vertical-align: inherit;&quot; dir=&quot;auto&quot;&gt;&lt;font style=&quot;vertical-align: inherit;&quot; dir=&quot;auto&quot;&gt;nome&lt;/font&gt;&lt;/font&gt;&lt;/font&gt;&lt;/font&gt;" style="text;html=1;align=center;verticalAlign=middle;resizable=0;points=[];autosize=1;strokeColor=none;fillColor=none;" vertex="1" parent="EDx5LjATlq7j0BT4Pbl9-83">
          <mxGeometry x="11" y="50" width="50" height="30" as="geometry" />
        </mxCell>
        <mxCell id="EDx5LjATlq7j0BT4Pbl9-85" value="id_jogador" style="text;html=1;align=center;verticalAlign=middle;resizable=0;points=[];autosize=1;strokeColor=none;fillColor=none;" vertex="1" parent="EDx5LjATlq7j0BT4Pbl9-83">
          <mxGeometry x="4" y="30" width="80" height="30" as="geometry" />
        </mxCell>
        <mxCell id="EDx5LjATlq7j0BT4Pbl9-86" value="&lt;font style=&quot;vertical-align: inherit;&quot; dir=&quot;auto&quot;&gt;&lt;font style=&quot;vertical-align: inherit;&quot; dir=&quot;auto&quot;&gt;posiÃ§Ã£o&lt;/font&gt;&lt;/font&gt;" style="text;html=1;align=center;verticalAlign=middle;resizable=0;points=[];autosize=1;strokeColor=none;fillColor=none;" vertex="1" parent="EDx5LjATlq7j0BT4Pbl9-83">
          <mxGeometry x="6" y="72" width="60" height="30" as="geometry" />
        </mxCell>
        <mxCell id="EDx5LjATlq7j0BT4Pbl9-87" value="&lt;font style=&quot;vertical-align: inherit;&quot; dir=&quot;auto&quot;&gt;&lt;font style=&quot;vertical-align: inherit;&quot; dir=&quot;auto&quot;&gt;&lt;font style=&quot;vertical-align: inherit;&quot; dir=&quot;auto&quot;&gt;&lt;font style=&quot;vertical-align: inherit;&quot; dir=&quot;auto&quot;&gt;atributos&lt;/font&gt;&lt;/font&gt;&lt;/font&gt;&lt;/font&gt;" style="swimlane;whiteSpace=wrap;html=1;" vertex="1" parent="1">
          <mxGeometry x="440" y="1412" width="140" height="160" as="geometry" />
        </mxCell>
        <mxCell id="EDx5LjATlq7j0BT4Pbl9-88" value="&lt;font style=&quot;vertical-align: inherit;&quot; dir=&quot;auto&quot;&gt;&lt;font style=&quot;vertical-align: inherit;&quot; dir=&quot;auto&quot;&gt;id_equipe&lt;/font&gt;&lt;/font&gt;" style="text;html=1;align=center;verticalAlign=middle;resizable=0;points=[];autosize=1;strokeColor=none;fillColor=none;" vertex="1" parent="EDx5LjATlq7j0BT4Pbl9-87">
          <mxGeometry x="-5" y="30" width="80" height="30" as="geometry" />
        </mxCell>
        <mxCell id="EDx5LjATlq7j0BT4Pbl9-89" value="&lt;font style=&quot;vertical-align: inherit;&quot; dir=&quot;auto&quot;&gt;&lt;font style=&quot;vertical-align: inherit;&quot; dir=&quot;auto&quot;&gt;id_jogador&lt;/font&gt;&lt;/font&gt;" style="text;html=1;align=center;verticalAlign=middle;resizable=0;points=[];autosize=1;strokeColor=none;fillColor=none;" vertex="1" parent="EDx5LjATlq7j0BT4Pbl9-87">
          <mxGeometry x="-5" y="60" width="80" height="30" as="geometry" />
        </mxCell>
        <mxCell id="EDx5LjATlq7j0BT4Pbl9-90" value="&lt;font style=&quot;vertical-align: inherit;&quot; dir=&quot;auto&quot;&gt;&lt;font style=&quot;vertical-align: inherit;&quot; dir=&quot;auto&quot;&gt;nome&lt;/font&gt;&lt;/font&gt;" style="text;html=1;align=center;verticalAlign=middle;resizable=0;points=[];autosize=1;strokeColor=none;fillColor=none;" vertex="1" parent="EDx5LjATlq7j0BT4Pbl9-87">
          <mxGeometry y="85" width="50" height="30" as="geometry" />
        </mxCell>
        <mxCell id="EDx5LjATlq7j0BT4Pbl9-91" value="divisÃ£o" style="text;html=1;align=center;verticalAlign=middle;resizable=0;points=[];autosize=1;strokeColor=none;fillColor=none;" vertex="1" parent="EDx5LjATlq7j0BT4Pbl9-87">
          <mxGeometry y="108" width="60" height="30" as="geometry" />
        </mxCell>
        <mxCell id="EDx5LjATlq7j0BT4Pbl9-92" value="modalidade" style="text;html=1;align=center;verticalAlign=middle;resizable=0;points=[];autosize=1;strokeColor=none;fillColor=none;" vertex="1" parent="EDx5LjATlq7j0BT4Pbl9-87">
          <mxGeometry x="-5" y="130" width="90" height="30" as="geometry" />
        </mxCell>
        <mxCell id="EDx5LjATlq7j0BT4Pbl9-93" style="edgeStyle=orthogonalEdgeStyle;rounded=0;orthogonalLoop=1;jettySize=auto;html=1;" edge="1" parent="1" source="EDx5LjATlq7j0BT4Pbl9-97">
          <mxGeometry relative="1" as="geometry">
            <mxPoint x="130" y="1332" as="targetPoint" />
          </mxGeometry>
        </mxCell>
        <mxCell id="EDx5LjATlq7j0BT4Pbl9-94" value="1" style="edgeLabel;html=1;align=center;verticalAlign=middle;resizable=0;points=[];" vertex="1" connectable="0" parent="EDx5LjATlq7j0BT4Pbl9-93">
          <mxGeometry x="0.7227" y="-1" relative="1" as="geometry">
            <mxPoint x="-1" as="offset" />
          </mxGeometry>
        </mxCell>
        <mxCell id="EDx5LjATlq7j0BT4Pbl9-95" style="edgeStyle=orthogonalEdgeStyle;rounded=0;orthogonalLoop=1;jettySize=auto;html=1;exitX=1;exitY=0.5;exitDx=0;exitDy=0;" edge="1" parent="1" source="EDx5LjATlq7j0BT4Pbl9-97">
          <mxGeometry relative="1" as="geometry">
            <mxPoint x="450" y="1332" as="targetPoint" />
          </mxGeometry>
        </mxCell>
        <mxCell id="EDx5LjATlq7j0BT4Pbl9-96" value="N" style="edgeLabel;html=1;align=center;verticalAlign=middle;resizable=0;points=[];" vertex="1" connectable="0" parent="EDx5LjATlq7j0BT4Pbl9-95">
          <mxGeometry x="0.6666" y="-2" relative="1" as="geometry">
            <mxPoint as="offset" />
          </mxGeometry>
        </mxCell>
        <mxCell id="EDx5LjATlq7j0BT4Pbl9-97" value="&lt;font style=&quot;vertical-align: inherit;&quot; dir=&quot;auto&quot;&gt;&lt;font style=&quot;vertical-align: inherit;&quot; dir=&quot;auto&quot;&gt;TEM&lt;/font&gt;&lt;/font&gt;" style="rhombus;whiteSpace=wrap;html=1;" vertex="1" parent="1">
          <mxGeometry x="260" y="1292" width="80" height="80" as="geometry" />
        </mxCell>
        <mxCell id="EDx5LjATlq7j0BT4Pbl9-98" value="JOGADOR" style="rounded=0;whiteSpace=wrap;html=1;" vertex="1" parent="1">
          <mxGeometry x="10" y="1312" width="120" height="60" as="geometry" />
        </mxCell>
        <mxCell id="EDx5LjATlq7j0BT4Pbl9-99" value="&lt;font style=&quot;vertical-align: inherit;&quot; dir=&quot;auto&quot;&gt;&lt;font style=&quot;vertical-align: inherit;&quot; dir=&quot;auto&quot;&gt;EQUIPE&lt;/font&gt;&lt;/font&gt;" style="rounded=1;whiteSpace=wrap;html=1;" vertex="1" parent="1">
          <mxGeometry x="450" y="1312" width="120" height="60" as="geometry" />
        </mxCell>
        <mxCell id="EDx5LjATlq7j0BT4Pbl9-100" value="" style="endArrow=none;html=1;rounded=0;edgeStyle=orthogonalEdgeStyle;entryX=0;entryY=0.75;entryDx=0;entryDy=0;startArrow=oval;startFill=1;" edge="1" parent="1" target="EDx5LjATlq7j0BT4Pbl9-98">
          <mxGeometry width="50" height="50" relative="1" as="geometry">
            <mxPoint x="-50" y="1453" as="sourcePoint" />
            <mxPoint x="-110" y="1352" as="targetPoint" />
            <Array as="points">
              <mxPoint x="-50" y="1454" />
              <mxPoint x="-109" y="1454" />
              <mxPoint x="-109" y="1357" />
            </Array>
          </mxGeometry>
        </mxCell>
        <mxCell id="EDx5LjATlq7j0BT4Pbl9-101" value="" style="endArrow=none;html=1;rounded=0;edgeStyle=orthogonalEdgeStyle;startArrow=oval;startFill=0;" edge="1" parent="1" target="EDx5LjATlq7j0BT4Pbl9-99">
          <mxGeometry width="50" height="50" relative="1" as="geometry">
            <mxPoint x="590" y="1492" as="sourcePoint" />
            <mxPoint x="630" y="1332" as="targetPoint" />
            <Array as="points">
              <mxPoint x="580" y="1492" />
              <mxPoint x="580" y="1493" />
              <mxPoint x="631" y="1493" />
              <mxPoint x="631" y="1342" />
            </Array>
          </mxGeometry>
        </mxCell>
        <mxCell id="EDx5LjATlq7j0BT4Pbl9-102" value="" style="endArrow=none;html=1;rounded=0;startArrow=oval;startFill=1;edgeStyle=orthogonalEdgeStyle;entryX=1;entryY=0.75;entryDx=0;entryDy=0;" edge="1" parent="1" target="EDx5LjATlq7j0BT4Pbl9-99">
          <mxGeometry width="50" height="50" relative="1" as="geometry">
            <mxPoint x="590" y="1452" as="sourcePoint" />
            <mxPoint x="610" y="1362" as="targetPoint" />
            <Array as="points">
              <mxPoint x="580" y="1452" />
              <mxPoint x="580" y="1453" />
              <mxPoint x="621" y="1453" />
              <mxPoint x="621" y="1357" />
            </Array>
          </mxGeometry>
        </mxCell>
        <mxCell id="EDx5LjATlq7j0BT4Pbl9-103" value="" style="endArrow=none;html=1;rounded=0;edgeStyle=orthogonalEdgeStyle;entryX=0;entryY=0;entryDx=0;entryDy=0;startArrow=none;startFill=0;" edge="1" parent="1" target="EDx5LjATlq7j0BT4Pbl9-98">
          <mxGeometry width="50" height="50" relative="1" as="geometry">
            <mxPoint x="-50" y="1502" as="sourcePoint" />
            <mxPoint x="-151" y="1302" as="targetPoint" />
            <Array as="points">
              <mxPoint x="-150" y="1502" />
              <mxPoint x="-150" y="1312" />
            </Array>
          </mxGeometry>
        </mxCell>
        <mxCell id="EDx5LjATlq7j0BT4Pbl9-104" value="" style="endArrow=none;html=1;rounded=0;edgeStyle=orthogonalEdgeStyle;entryX=0;entryY=0.25;entryDx=0;entryDy=0;startArrow=none;startFill=0;exitX=0;exitY=0.5;exitDx=0;exitDy=0;" edge="1" parent="1" source="EDx5LjATlq7j0BT4Pbl9-83" target="EDx5LjATlq7j0BT4Pbl9-98">
          <mxGeometry width="50" height="50" relative="1" as="geometry">
            <mxPoint x="-160" y="1482" as="sourcePoint" />
            <mxPoint x="-110" y="1332" as="targetPoint" />
            <Array as="points">
              <mxPoint x="-130" y="1487" />
              <mxPoint x="-130" y="1332" />
              <mxPoint x="10" y="1332" />
            </Array>
          </mxGeometry>
        </mxCell>
        <mxCell id="EDx5LjATlq7j0BT4Pbl9-105" value="" style="endArrow=none;html=1;rounded=0;edgeStyle=orthogonalEdgeStyle;startArrow=none;startFill=0;" edge="1" parent="1">
          <mxGeometry width="50" height="50" relative="1" as="geometry">
            <mxPoint x="580" y="1513" as="sourcePoint" />
            <mxPoint x="570" y="1362" as="targetPoint" />
            <Array as="points">
              <mxPoint x="580" y="1512" />
              <mxPoint x="580" y="1513" />
              <mxPoint x="641" y="1513" />
              <mxPoint x="641" y="1332" />
              <mxPoint x="570" y="1332" />
            </Array>
          </mxGeometry>
        </mxCell>
        <mxCell id="EDx5LjATlq7j0BT4Pbl9-106" value="" style="endArrow=none;html=1;rounded=0;edgeStyle=orthogonalEdgeStyle;startArrow=none;startFill=0;entryX=0.97;entryY=0.14;entryDx=0;entryDy=0;entryPerimeter=0;" edge="1" parent="1">
          <mxGeometry width="50" height="50" relative="1" as="geometry">
            <mxPoint x="582" y="1541" as="sourcePoint" />
            <mxPoint x="569.4000000000001" y="1320.4" as="targetPoint" />
            <Array as="points">
              <mxPoint x="582" y="1540" />
              <mxPoint x="581" y="1540" />
              <mxPoint x="581" y="1541" />
              <mxPoint x="651" y="1541" />
              <mxPoint x="651" y="1320" />
            </Array>
          </mxGeometry>
        </mxCell>
        <mxCell id="EDx5LjATlq7j0BT4Pbl9-107" value="" style="endArrow=none;html=1;rounded=0;edgeStyle=orthogonalEdgeStyle;startArrow=none;startFill=0;" edge="1" parent="1">
          <mxGeometry width="50" height="50" relative="1" as="geometry">
            <mxPoint x="579" y="1560" as="sourcePoint" />
            <mxPoint x="561" y="1310" as="targetPoint" />
            <Array as="points">
              <mxPoint x="591" y="1560" />
              <mxPoint x="661" y="1560" />
              <mxPoint x="661" y="1312" />
            </Array>
          </mxGeometry>
        </mxCell>
        <mxCell id="EDx5LjATlq7j0BT4Pbl9-108" value="ExercÃ­cio 5" style="text;html=1;align=center;verticalAlign=middle;resizable=0;points=[];autosize=1;strokeColor=none;fillColor=none;" vertex="1" parent="1">
          <mxGeometry x="211" y="1660" width="80" height="30" as="geometry" />
        </mxCell>
        <mxCell id="EDx5LjATlq7j0BT4Pbl9-109" value="&lt;font style=&quot;vertical-align: inherit;&quot; dir=&quot;auto&quot;&gt;&lt;font style=&quot;vertical-align: inherit;&quot; dir=&quot;auto&quot;&gt;&lt;font style=&quot;vertical-align: inherit;&quot; dir=&quot;auto&quot;&gt;&lt;font style=&quot;vertical-align: inherit;&quot; dir=&quot;auto&quot;&gt;atributos&lt;/font&gt;&lt;/font&gt;&lt;span style=&quot;white-space: pre;&quot;&gt;&#x9;&lt;/span&gt;&lt;/font&gt;&lt;/font&gt;" style="swimlane;whiteSpace=wrap;html=1;" vertex="1" parent="1">
          <mxGeometry x="-100" y="1832" width="140" height="150" as="geometry" />
        </mxCell>
        <mxCell id="EDx5LjATlq7j0BT4Pbl9-110" value="&lt;font style=&quot;vertical-align: inherit;&quot; dir=&quot;auto&quot;&gt;&lt;font style=&quot;vertical-align: inherit;&quot; dir=&quot;auto&quot;&gt;&lt;font style=&quot;vertical-align: inherit;&quot; dir=&quot;auto&quot;&gt;&lt;font style=&quot;vertical-align: inherit;&quot; dir=&quot;auto&quot;&gt;nome&lt;/font&gt;&lt;/font&gt;&lt;/font&gt;&lt;/font&gt;" style="text;html=1;align=center;verticalAlign=middle;resizable=0;points=[];autosize=1;strokeColor=none;fillColor=none;" vertex="1" parent="EDx5LjATlq7j0BT4Pbl9-109">
          <mxGeometry x="11" y="50" width="50" height="30" as="geometry" />
        </mxCell>
        <mxCell id="EDx5LjATlq7j0BT4Pbl9-111" value="id_cliente" style="text;html=1;align=center;verticalAlign=middle;resizable=0;points=[];autosize=1;strokeColor=none;fillColor=none;" vertex="1" parent="EDx5LjATlq7j0BT4Pbl9-109">
          <mxGeometry x="9" y="30" width="70" height="30" as="geometry" />
        </mxCell>
        <mxCell id="EDx5LjATlq7j0BT4Pbl9-113" value="&lt;font style=&quot;vertical-align: inherit;&quot; dir=&quot;auto&quot;&gt;&lt;font style=&quot;vertical-align: inherit;&quot; dir=&quot;auto&quot;&gt;&lt;font style=&quot;vertical-align: inherit;&quot; dir=&quot;auto&quot;&gt;&lt;font style=&quot;vertical-align: inherit;&quot; dir=&quot;auto&quot;&gt;atributos&lt;/font&gt;&lt;/font&gt;&lt;/font&gt;&lt;/font&gt;" style="swimlane;whiteSpace=wrap;html=1;" vertex="1" parent="1">
          <mxGeometry x="390" y="1832" width="140" height="160" as="geometry" />
        </mxCell>
        <mxCell id="EDx5LjATlq7j0BT4Pbl9-114" value="&lt;font style=&quot;vertical-align: inherit;&quot; dir=&quot;auto&quot;&gt;&lt;font style=&quot;vertical-align: inherit;&quot; dir=&quot;auto&quot;&gt;id_produto&lt;/font&gt;&lt;/font&gt;" style="text;html=1;align=center;verticalAlign=middle;resizable=0;points=[];autosize=1;strokeColor=none;fillColor=none;" vertex="1" parent="EDx5LjATlq7j0BT4Pbl9-113">
          <mxGeometry x="-5" y="30" width="80" height="30" as="geometry" />
        </mxCell>
        <mxCell id="EDx5LjATlq7j0BT4Pbl9-115" value="&lt;font style=&quot;vertical-align: inherit;&quot; dir=&quot;auto&quot;&gt;&lt;font style=&quot;vertical-align: inherit;&quot; dir=&quot;auto&quot;&gt;id_cliente&lt;/font&gt;&lt;/font&gt;" style="text;html=1;align=center;verticalAlign=middle;resizable=0;points=[];autosize=1;strokeColor=none;fillColor=none;" vertex="1" parent="EDx5LjATlq7j0BT4Pbl9-113">
          <mxGeometry y="60" width="70" height="30" as="geometry" />
        </mxCell>
        <mxCell id="EDx5LjATlq7j0BT4Pbl9-116" value="&lt;font style=&quot;vertical-align: inherit;&quot; dir=&quot;auto&quot;&gt;&lt;font style=&quot;vertical-align: inherit;&quot; dir=&quot;auto&quot;&gt;nome&lt;/font&gt;&lt;/font&gt;" style="text;html=1;align=center;verticalAlign=middle;resizable=0;points=[];autosize=1;strokeColor=none;fillColor=none;" vertex="1" parent="EDx5LjATlq7j0BT4Pbl9-113">
          <mxGeometry y="85" width="50" height="30" as="geometry" />
        </mxCell>
        <mxCell id="EDx5LjATlq7j0BT4Pbl9-117" value="preÃ§o" style="text;html=1;align=center;verticalAlign=middle;resizable=0;points=[];autosize=1;strokeColor=none;fillColor=none;" vertex="1" parent="EDx5LjATlq7j0BT4Pbl9-113">
          <mxGeometry x="5" y="108" width="50" height="30" as="geometry" />
        </mxCell>
        <mxCell id="EDx5LjATlq7j0BT4Pbl9-119" style="edgeStyle=orthogonalEdgeStyle;rounded=0;orthogonalLoop=1;jettySize=auto;html=1;" edge="1" parent="1" source="EDx5LjATlq7j0BT4Pbl9-123">
          <mxGeometry relative="1" as="geometry">
            <mxPoint x="80" y="1752" as="targetPoint" />
          </mxGeometry>
        </mxCell>
        <mxCell id="EDx5LjATlq7j0BT4Pbl9-120" value="N" style="edgeLabel;html=1;align=center;verticalAlign=middle;resizable=0;points=[];" vertex="1" connectable="0" parent="EDx5LjATlq7j0BT4Pbl9-119">
          <mxGeometry x="0.7227" y="-1" relative="1" as="geometry">
            <mxPoint x="-1" as="offset" />
          </mxGeometry>
        </mxCell>
        <mxCell id="EDx5LjATlq7j0BT4Pbl9-121" style="edgeStyle=orthogonalEdgeStyle;rounded=0;orthogonalLoop=1;jettySize=auto;html=1;exitX=1;exitY=0.5;exitDx=0;exitDy=0;" edge="1" parent="1" source="EDx5LjATlq7j0BT4Pbl9-123">
          <mxGeometry relative="1" as="geometry">
            <mxPoint x="400" y="1752" as="targetPoint" />
          </mxGeometry>
        </mxCell>
        <mxCell id="EDx5LjATlq7j0BT4Pbl9-122" value="N" style="edgeLabel;html=1;align=center;verticalAlign=middle;resizable=0;points=[];" vertex="1" connectable="0" parent="EDx5LjATlq7j0BT4Pbl9-121">
          <mxGeometry x="0.6666" y="-2" relative="1" as="geometry">
            <mxPoint as="offset" />
          </mxGeometry>
        </mxCell>
        <mxCell id="EDx5LjATlq7j0BT4Pbl9-123" value="COMPRA" style="rhombus;whiteSpace=wrap;html=1;" vertex="1" parent="1">
          <mxGeometry x="210" y="1712" width="80" height="80" as="geometry" />
        </mxCell>
        <mxCell id="EDx5LjATlq7j0BT4Pbl9-124" value="CLIENTE" style="rounded=0;whiteSpace=wrap;html=1;" vertex="1" parent="1">
          <mxGeometry x="-40" y="1732" width="120" height="60" as="geometry" />
        </mxCell>
        <mxCell id="EDx5LjATlq7j0BT4Pbl9-125" value="&lt;font style=&quot;vertical-align: inherit;&quot; dir=&quot;auto&quot;&gt;&lt;font style=&quot;vertical-align: inherit;&quot; dir=&quot;auto&quot;&gt;PRODUTO&lt;/font&gt;&lt;/font&gt;" style="rounded=1;whiteSpace=wrap;html=1;" vertex="1" parent="1">
          <mxGeometry x="400" y="1732" width="120" height="60" as="geometry" />
        </mxCell>
        <mxCell id="EDx5LjATlq7j0BT4Pbl9-126" value="" style="endArrow=none;html=1;rounded=0;edgeStyle=orthogonalEdgeStyle;entryX=0;entryY=0.75;entryDx=0;entryDy=0;startArrow=oval;startFill=1;" edge="1" parent="1" target="EDx5LjATlq7j0BT4Pbl9-124">
          <mxGeometry width="50" height="50" relative="1" as="geometry">
            <mxPoint x="-100" y="1873" as="sourcePoint" />
            <mxPoint x="-160" y="1772" as="targetPoint" />
            <Array as="points">
              <mxPoint x="-100" y="1874" />
              <mxPoint x="-159" y="1874" />
              <mxPoint x="-159" y="1777" />
            </Array>
          </mxGeometry>
        </mxCell>
        <mxCell id="EDx5LjATlq7j0BT4Pbl9-127" value="" style="endArrow=none;html=1;rounded=0;edgeStyle=orthogonalEdgeStyle;startArrow=oval;startFill=0;" edge="1" parent="1" target="EDx5LjATlq7j0BT4Pbl9-125">
          <mxGeometry width="50" height="50" relative="1" as="geometry">
            <mxPoint x="540" y="1912" as="sourcePoint" />
            <mxPoint x="580" y="1752" as="targetPoint" />
            <Array as="points">
              <mxPoint x="530" y="1912" />
              <mxPoint x="530" y="1913" />
              <mxPoint x="581" y="1913" />
              <mxPoint x="581" y="1762" />
            </Array>
          </mxGeometry>
        </mxCell>
        <mxCell id="EDx5LjATlq7j0BT4Pbl9-128" value="" style="endArrow=none;html=1;rounded=0;startArrow=oval;startFill=1;edgeStyle=orthogonalEdgeStyle;entryX=1;entryY=0.75;entryDx=0;entryDy=0;" edge="1" parent="1" target="EDx5LjATlq7j0BT4Pbl9-125">
          <mxGeometry width="50" height="50" relative="1" as="geometry">
            <mxPoint x="540" y="1872" as="sourcePoint" />
            <mxPoint x="560" y="1782" as="targetPoint" />
            <Array as="points">
              <mxPoint x="530" y="1872" />
              <mxPoint x="530" y="1873" />
              <mxPoint x="571" y="1873" />
              <mxPoint x="571" y="1777" />
            </Array>
          </mxGeometry>
        </mxCell>
        <mxCell id="EDx5LjATlq7j0BT4Pbl9-129" value="" style="endArrow=none;html=1;rounded=0;edgeStyle=orthogonalEdgeStyle;entryX=0;entryY=0.25;entryDx=0;entryDy=0;startArrow=none;startFill=0;exitX=0;exitY=0.5;exitDx=0;exitDy=0;" edge="1" parent="1" source="EDx5LjATlq7j0BT4Pbl9-109" target="EDx5LjATlq7j0BT4Pbl9-124">
          <mxGeometry width="50" height="50" relative="1" as="geometry">
            <mxPoint x="-210" y="1902" as="sourcePoint" />
            <mxPoint x="-160" y="1752" as="targetPoint" />
            <Array as="points">
              <mxPoint x="-180" y="1907" />
              <mxPoint x="-180" y="1752" />
              <mxPoint x="-40" y="1752" />
            </Array>
          </mxGeometry>
        </mxCell>
        <mxCell id="EDx5LjATlq7j0BT4Pbl9-130" value="" style="endArrow=none;html=1;rounded=0;edgeStyle=orthogonalEdgeStyle;startArrow=none;startFill=0;" edge="1" parent="1">
          <mxGeometry width="50" height="50" relative="1" as="geometry">
            <mxPoint x="530" y="1933" as="sourcePoint" />
            <mxPoint x="520" y="1782" as="targetPoint" />
            <Array as="points">
              <mxPoint x="530" y="1932" />
              <mxPoint x="530" y="1933" />
              <mxPoint x="591" y="1933" />
              <mxPoint x="591" y="1752" />
              <mxPoint x="520" y="1752" />
            </Array>
          </mxGeometry>
        </mxCell>
        <mxCell id="EDx5LjATlq7j0BT4Pbl9-131" value="" style="endArrow=none;html=1;rounded=0;edgeStyle=orthogonalEdgeStyle;startArrow=none;startFill=0;entryX=0.97;entryY=0.14;entryDx=0;entryDy=0;entryPerimeter=0;" edge="1" parent="1">
          <mxGeometry width="50" height="50" relative="1" as="geometry">
            <mxPoint x="532" y="1961" as="sourcePoint" />
            <mxPoint x="519.4000000000001" y="1740.4" as="targetPoint" />
            <Array as="points">
              <mxPoint x="532" y="1960" />
              <mxPoint x="531" y="1960" />
              <mxPoint x="531" y="1961" />
              <mxPoint x="601" y="1961" />
              <mxPoint x="601" y="1740" />
            </Array>
          </mxGeometry>
        </mxCell>
        <mxCell id="EDx5LjATlq7j0BT4Pbl9-132" value="" style="endArrow=none;html=1;rounded=0;edgeStyle=orthogonalEdgeStyle;startArrow=none;startFill=0;" edge="1" parent="1">
          <mxGeometry width="50" height="50" relative="1" as="geometry">
            <mxPoint x="529" y="1980" as="sourcePoint" />
            <mxPoint x="511" y="1730" as="targetPoint" />
            <Array as="points">
              <mxPoint x="541" y="1980" />
              <mxPoint x="611" y="1980" />
              <mxPoint x="611" y="1732" />
            </Array>
          </mxGeometry>
        </mxCell>
        <mxCell id="EDx5LjATlq7j0BT4Pbl9-133" value="ExercÃ­cio 6" style="text;html=1;align=center;verticalAlign=middle;resizable=0;points=[];autosize=1;strokeColor=none;fillColor=none;" vertex="1" parent="1">
          <mxGeometry x="211" y="2050" width="80" height="30" as="geometry" />
        </mxCell>
        <mxCell id="EDx5LjATlq7j0BT4Pbl9-134" value="&lt;font style=&quot;vertical-align: inherit;&quot; dir=&quot;auto&quot;&gt;&lt;font style=&quot;vertical-align: inherit;&quot; dir=&quot;auto&quot;&gt;&lt;font style=&quot;vertical-align: inherit;&quot; dir=&quot;auto&quot;&gt;&lt;font style=&quot;vertical-align: inherit;&quot; dir=&quot;auto&quot;&gt;atributos&lt;/font&gt;&lt;/font&gt;&lt;span style=&quot;white-space: pre;&quot;&gt;&#x9;&lt;/span&gt;&lt;/font&gt;&lt;/font&gt;" style="swimlane;whiteSpace=wrap;html=1;" vertex="1" parent="1">
          <mxGeometry x="-100" y="2222" width="140" height="150" as="geometry" />
        </mxCell>
        <mxCell id="EDx5LjATlq7j0BT4Pbl9-135" value="&lt;font style=&quot;vertical-align: inherit;&quot; dir=&quot;auto&quot;&gt;&lt;font style=&quot;vertical-align: inherit;&quot; dir=&quot;auto&quot;&gt;&lt;font style=&quot;vertical-align: inherit;&quot; dir=&quot;auto&quot;&gt;&lt;font style=&quot;vertical-align: inherit;&quot; dir=&quot;auto&quot;&gt;nome&lt;/font&gt;&lt;/font&gt;&lt;/font&gt;&lt;/font&gt;" style="text;html=1;align=center;verticalAlign=middle;resizable=0;points=[];autosize=1;strokeColor=none;fillColor=none;" vertex="1" parent="EDx5LjATlq7j0BT4Pbl9-134">
          <mxGeometry x="11" y="50" width="50" height="30" as="geometry" />
        </mxCell>
        <mxCell id="EDx5LjATlq7j0BT4Pbl9-136" value="id_aluno" style="text;html=1;align=center;verticalAlign=middle;resizable=0;points=[];autosize=1;strokeColor=none;fillColor=none;" vertex="1" parent="EDx5LjATlq7j0BT4Pbl9-134">
          <mxGeometry x="9" y="30" width="70" height="30" as="geometry" />
        </mxCell>
        <mxCell id="EDx5LjATlq7j0BT4Pbl9-156" value="endereÃ§o" style="text;html=1;align=center;verticalAlign=middle;resizable=0;points=[];autosize=1;strokeColor=none;fillColor=none;" vertex="1" parent="EDx5LjATlq7j0BT4Pbl9-134">
          <mxGeometry x="9" y="80" width="70" height="30" as="geometry" />
        </mxCell>
        <mxCell id="EDx5LjATlq7j0BT4Pbl9-137" value="&lt;font style=&quot;vertical-align: inherit;&quot; dir=&quot;auto&quot;&gt;&lt;font style=&quot;vertical-align: inherit;&quot; dir=&quot;auto&quot;&gt;&lt;font style=&quot;vertical-align: inherit;&quot; dir=&quot;auto&quot;&gt;&lt;font style=&quot;vertical-align: inherit;&quot; dir=&quot;auto&quot;&gt;atributos&lt;/font&gt;&lt;/font&gt;&lt;/font&gt;&lt;/font&gt;" style="swimlane;whiteSpace=wrap;html=1;" vertex="1" parent="1">
          <mxGeometry x="390" y="2222" width="140" height="188" as="geometry" />
        </mxCell>
        <mxCell id="EDx5LjATlq7j0BT4Pbl9-138" value="&lt;font style=&quot;vertical-align: inherit;&quot; dir=&quot;auto&quot;&gt;&lt;font style=&quot;vertical-align: inherit;&quot; dir=&quot;auto&quot;&gt;id_curso&lt;/font&gt;&lt;/font&gt;" style="text;html=1;align=center;verticalAlign=middle;resizable=0;points=[];autosize=1;strokeColor=none;fillColor=none;" vertex="1" parent="EDx5LjATlq7j0BT4Pbl9-137">
          <mxGeometry y="30" width="70" height="30" as="geometry" />
        </mxCell>
        <mxCell id="EDx5LjATlq7j0BT4Pbl9-139" value="&lt;font style=&quot;vertical-align: inherit;&quot; dir=&quot;auto&quot;&gt;&lt;font style=&quot;vertical-align: inherit;&quot; dir=&quot;auto&quot;&gt;id_aluno&lt;/font&gt;&lt;/font&gt;" style="text;html=1;align=center;verticalAlign=middle;resizable=0;points=[];autosize=1;strokeColor=none;fillColor=none;" vertex="1" parent="EDx5LjATlq7j0BT4Pbl9-137">
          <mxGeometry y="60" width="70" height="30" as="geometry" />
        </mxCell>
        <mxCell id="EDx5LjATlq7j0BT4Pbl9-140" value="&lt;font style=&quot;vertical-align: inherit;&quot; dir=&quot;auto&quot;&gt;&lt;font style=&quot;vertical-align: inherit;&quot; dir=&quot;auto&quot;&gt;nome&lt;/font&gt;&lt;/font&gt;" style="text;html=1;align=center;verticalAlign=middle;resizable=0;points=[];autosize=1;strokeColor=none;fillColor=none;" vertex="1" parent="EDx5LjATlq7j0BT4Pbl9-137">
          <mxGeometry y="85" width="50" height="30" as="geometry" />
        </mxCell>
        <mxCell id="EDx5LjATlq7j0BT4Pbl9-141" value="preÃ§o" style="text;html=1;align=center;verticalAlign=middle;resizable=0;points=[];autosize=1;strokeColor=none;fillColor=none;" vertex="1" parent="EDx5LjATlq7j0BT4Pbl9-137">
          <mxGeometry x="1" y="108" width="50" height="30" as="geometry" />
        </mxCell>
        <mxCell id="EDx5LjATlq7j0BT4Pbl9-159" value="turma" style="text;html=1;align=center;verticalAlign=middle;resizable=0;points=[];autosize=1;strokeColor=none;fillColor=none;" vertex="1" parent="EDx5LjATlq7j0BT4Pbl9-137">
          <mxGeometry x="1" y="146" width="50" height="30" as="geometry" />
        </mxCell>
        <mxCell id="EDx5LjATlq7j0BT4Pbl9-142" style="edgeStyle=orthogonalEdgeStyle;rounded=0;orthogonalLoop=1;jettySize=auto;html=1;" edge="1" parent="1" source="EDx5LjATlq7j0BT4Pbl9-146">
          <mxGeometry relative="1" as="geometry">
            <mxPoint x="80" y="2142" as="targetPoint" />
          </mxGeometry>
        </mxCell>
        <mxCell id="EDx5LjATlq7j0BT4Pbl9-143" value="1" style="edgeLabel;html=1;align=center;verticalAlign=middle;resizable=0;points=[];" vertex="1" connectable="0" parent="EDx5LjATlq7j0BT4Pbl9-142">
          <mxGeometry x="0.7227" y="-1" relative="1" as="geometry">
            <mxPoint x="-1" as="offset" />
          </mxGeometry>
        </mxCell>
        <mxCell id="EDx5LjATlq7j0BT4Pbl9-144" style="edgeStyle=orthogonalEdgeStyle;rounded=0;orthogonalLoop=1;jettySize=auto;html=1;exitX=1;exitY=0.5;exitDx=0;exitDy=0;" edge="1" parent="1" source="EDx5LjATlq7j0BT4Pbl9-146">
          <mxGeometry relative="1" as="geometry">
            <mxPoint x="400" y="2142" as="targetPoint" />
          </mxGeometry>
        </mxCell>
        <mxCell id="EDx5LjATlq7j0BT4Pbl9-145" value="1" style="edgeLabel;html=1;align=center;verticalAlign=middle;resizable=0;points=[];" vertex="1" connectable="0" parent="EDx5LjATlq7j0BT4Pbl9-144">
          <mxGeometry x="0.6666" y="-2" relative="1" as="geometry">
            <mxPoint as="offset" />
          </mxGeometry>
        </mxCell>
        <mxCell id="EDx5LjATlq7j0BT4Pbl9-146" value="ESCOLHE" style="rhombus;whiteSpace=wrap;html=1;" vertex="1" parent="1">
          <mxGeometry x="210" y="2102" width="80" height="80" as="geometry" />
        </mxCell>
        <mxCell id="EDx5LjATlq7j0BT4Pbl9-147" value="ALUNO" style="rounded=0;whiteSpace=wrap;html=1;" vertex="1" parent="1">
          <mxGeometry x="-40" y="2122" width="120" height="60" as="geometry" />
        </mxCell>
        <mxCell id="EDx5LjATlq7j0BT4Pbl9-148" value="&lt;font style=&quot;vertical-align: inherit;&quot; dir=&quot;auto&quot;&gt;&lt;font style=&quot;vertical-align: inherit;&quot; dir=&quot;auto&quot;&gt;CURSO&lt;/font&gt;&lt;/font&gt;" style="rounded=1;whiteSpace=wrap;html=1;" vertex="1" parent="1">
          <mxGeometry x="400" y="2122" width="120" height="60" as="geometry" />
        </mxCell>
        <mxCell id="EDx5LjATlq7j0BT4Pbl9-149" value="" style="endArrow=none;html=1;rounded=0;edgeStyle=orthogonalEdgeStyle;entryX=0;entryY=0.75;entryDx=0;entryDy=0;startArrow=oval;startFill=1;" edge="1" parent="1" target="EDx5LjATlq7j0BT4Pbl9-147">
          <mxGeometry width="50" height="50" relative="1" as="geometry">
            <mxPoint x="-100" y="2263" as="sourcePoint" />
            <mxPoint x="-160" y="2162" as="targetPoint" />
            <Array as="points">
              <mxPoint x="-100" y="2264" />
              <mxPoint x="-159" y="2264" />
              <mxPoint x="-159" y="2167" />
            </Array>
          </mxGeometry>
        </mxCell>
        <mxCell id="EDx5LjATlq7j0BT4Pbl9-150" value="" style="endArrow=none;html=1;rounded=0;edgeStyle=orthogonalEdgeStyle;startArrow=oval;startFill=0;" edge="1" parent="1" target="EDx5LjATlq7j0BT4Pbl9-148">
          <mxGeometry width="50" height="50" relative="1" as="geometry">
            <mxPoint x="540" y="2302" as="sourcePoint" />
            <mxPoint x="580" y="2142" as="targetPoint" />
            <Array as="points">
              <mxPoint x="530" y="2302" />
              <mxPoint x="530" y="2303" />
              <mxPoint x="581" y="2303" />
              <mxPoint x="581" y="2160" />
            </Array>
          </mxGeometry>
        </mxCell>
        <mxCell id="EDx5LjATlq7j0BT4Pbl9-151" value="" style="endArrow=none;html=1;rounded=0;startArrow=oval;startFill=1;edgeStyle=orthogonalEdgeStyle;entryX=1;entryY=0.75;entryDx=0;entryDy=0;" edge="1" parent="1" target="EDx5LjATlq7j0BT4Pbl9-148">
          <mxGeometry width="50" height="50" relative="1" as="geometry">
            <mxPoint x="540" y="2262" as="sourcePoint" />
            <mxPoint x="560" y="2172" as="targetPoint" />
            <Array as="points">
              <mxPoint x="530" y="2262" />
              <mxPoint x="530" y="2263" />
              <mxPoint x="571" y="2263" />
              <mxPoint x="571" y="2167" />
            </Array>
          </mxGeometry>
        </mxCell>
        <mxCell id="EDx5LjATlq7j0BT4Pbl9-152" value="" style="endArrow=none;html=1;rounded=0;edgeStyle=orthogonalEdgeStyle;entryX=0;entryY=0.25;entryDx=0;entryDy=0;startArrow=none;startFill=0;exitX=0;exitY=0.5;exitDx=0;exitDy=0;" edge="1" parent="1" source="EDx5LjATlq7j0BT4Pbl9-134" target="EDx5LjATlq7j0BT4Pbl9-147">
          <mxGeometry width="50" height="50" relative="1" as="geometry">
            <mxPoint x="-210" y="2292" as="sourcePoint" />
            <mxPoint x="-160" y="2142" as="targetPoint" />
            <Array as="points">
              <mxPoint x="-180" y="2297" />
              <mxPoint x="-180" y="2142" />
              <mxPoint x="-40" y="2142" />
            </Array>
          </mxGeometry>
        </mxCell>
        <mxCell id="EDx5LjATlq7j0BT4Pbl9-153" value="" style="endArrow=none;html=1;rounded=0;edgeStyle=orthogonalEdgeStyle;startArrow=none;startFill=0;" edge="1" parent="1">
          <mxGeometry width="50" height="50" relative="1" as="geometry">
            <mxPoint x="530" y="2323" as="sourcePoint" />
            <mxPoint x="520" y="2172" as="targetPoint" />
            <Array as="points">
              <mxPoint x="530" y="2323" />
              <mxPoint x="591" y="2323" />
              <mxPoint x="591" y="2150" />
              <mxPoint x="520" y="2150" />
            </Array>
          </mxGeometry>
        </mxCell>
        <mxCell id="EDx5LjATlq7j0BT4Pbl9-154" value="" style="endArrow=none;html=1;rounded=0;edgeStyle=orthogonalEdgeStyle;startArrow=none;startFill=0;entryX=1;entryY=0.5;entryDx=0;entryDy=0;" edge="1" parent="1" target="EDx5LjATlq7j0BT4Pbl9-148">
          <mxGeometry width="50" height="50" relative="1" as="geometry">
            <mxPoint x="530" y="2347" as="sourcePoint" />
            <mxPoint x="520" y="2140" as="targetPoint" />
            <Array as="points">
              <mxPoint x="530" y="2346" />
              <mxPoint x="529" y="2346" />
              <mxPoint x="529" y="2347" />
              <mxPoint x="599" y="2347" />
              <mxPoint x="599" y="2145" />
              <mxPoint x="520" y="2145" />
            </Array>
          </mxGeometry>
        </mxCell>
        <mxCell id="EDx5LjATlq7j0BT4Pbl9-155" value="" style="endArrow=none;html=1;rounded=0;edgeStyle=orthogonalEdgeStyle;startArrow=none;startFill=0;" edge="1" parent="1">
          <mxGeometry width="50" height="50" relative="1" as="geometry">
            <mxPoint x="529" y="2370" as="sourcePoint" />
            <mxPoint x="520" y="2130" as="targetPoint" />
            <Array as="points">
              <mxPoint x="611" y="2370" />
              <mxPoint x="611" y="2140" />
              <mxPoint x="520" y="2140" />
            </Array>
          </mxGeometry>
        </mxCell>
        <mxCell id="EDx5LjATlq7j0BT4Pbl9-157" value="" style="endArrow=none;html=1;rounded=0;edgeStyle=orthogonalEdgeStyle;startArrow=none;startFill=0;entryX=-0.015;entryY=0.127;entryDx=0;entryDy=0;entryPerimeter=0;" edge="1" parent="1" target="EDx5LjATlq7j0BT4Pbl9-147">
          <mxGeometry width="50" height="50" relative="1" as="geometry">
            <mxPoint x="-100" y="2330" as="sourcePoint" />
            <mxPoint x="-80" y="2127" as="targetPoint" />
            <Array as="points">
              <mxPoint x="-100" y="2320" />
              <mxPoint x="-200" y="2320" />
              <mxPoint x="-200" y="2130" />
            </Array>
          </mxGeometry>
        </mxCell>
        <mxCell id="EDx5LjATlq7j0BT4Pbl9-158" value="horÃ¡rio" style="text;html=1;align=center;verticalAlign=middle;resizable=0;points=[];autosize=1;strokeColor=none;fillColor=none;" vertex="1" parent="1">
          <mxGeometry x="389" y="2352" width="60" height="30" as="geometry" />
        </mxCell>
        <mxCell id="EDx5LjATlq7j0BT4Pbl9-160" value="" style="endArrow=none;html=1;rounded=0;edgeStyle=orthogonalEdgeStyle;startArrow=none;startFill=0;" edge="1" parent="1">
          <mxGeometry width="50" height="50" relative="1" as="geometry">
            <mxPoint x="529" y="2392" as="sourcePoint" />
            <mxPoint x="500" y="2120" as="targetPoint" />
            <Array as="points">
              <mxPoint x="630" y="2392" />
              <mxPoint x="630" y="2122" />
            </Array>
          </mxGeometry>
        </mxCell>
        <mxCell id="EDx5LjATlq7j0BT4Pbl9-161" value="" style="endArrow=none;html=1;rounded=0;edgeStyle=orthogonalEdgeStyle;startArrow=none;startFill=0;" edge="1" parent="1">
          <mxGeometry width="50" height="50" relative="1" as="geometry">
            <mxPoint x="530" y="2380" as="sourcePoint" />
            <mxPoint x="520" y="2130" as="targetPoint" />
            <Array as="points">
              <mxPoint x="617" y="2383" />
              <mxPoint x="617" y="2130" />
              <mxPoint x="526" y="2130" />
            </Array>
          </mxGeometry>
        </mxCell>
        <mxCell id="EDx5LjATlq7j0BT4Pbl9-162" value="ExercÃ­cio 7" style="text;html=1;align=center;verticalAlign=middle;resizable=0;points=[];autosize=1;strokeColor=none;fillColor=none;" vertex="1" parent="1">
          <mxGeometry x="151" y="2480" width="80" height="30" as="geometry" />
        </mxCell>
        <mxCell id="EDx5LjATlq7j0BT4Pbl9-163" value="&lt;font style=&quot;vertical-align: inherit;&quot; dir=&quot;auto&quot;&gt;&lt;font style=&quot;vertical-align: inherit;&quot; dir=&quot;auto&quot;&gt;&lt;font style=&quot;vertical-align: inherit;&quot; dir=&quot;auto&quot;&gt;&lt;font style=&quot;vertical-align: inherit;&quot; dir=&quot;auto&quot;&gt;atributos&lt;/font&gt;&lt;/font&gt;&lt;span style=&quot;white-space: pre;&quot;&gt;&#x9;&lt;/span&gt;&lt;/font&gt;&lt;/font&gt;" style="swimlane;whiteSpace=wrap;html=1;" vertex="1" parent="1">
          <mxGeometry x="-160" y="2652" width="140" height="150" as="geometry" />
        </mxCell>
        <mxCell id="EDx5LjATlq7j0BT4Pbl9-164" value="&lt;font style=&quot;vertical-align: inherit;&quot; dir=&quot;auto&quot;&gt;&lt;font style=&quot;vertical-align: inherit;&quot; dir=&quot;auto&quot;&gt;&lt;font style=&quot;vertical-align: inherit;&quot; dir=&quot;auto&quot;&gt;&lt;font style=&quot;vertical-align: inherit;&quot; dir=&quot;auto&quot;&gt;nome&lt;/font&gt;&lt;/font&gt;&lt;/font&gt;&lt;/font&gt;" style="text;html=1;align=center;verticalAlign=middle;resizable=0;points=[];autosize=1;strokeColor=none;fillColor=none;" vertex="1" parent="EDx5LjATlq7j0BT4Pbl9-163">
          <mxGeometry x="11" y="50" width="50" height="30" as="geometry" />
        </mxCell>
        <mxCell id="EDx5LjATlq7j0BT4Pbl9-165" value="id_aluno" style="text;html=1;align=center;verticalAlign=middle;resizable=0;points=[];autosize=1;strokeColor=none;fillColor=none;" vertex="1" parent="EDx5LjATlq7j0BT4Pbl9-163">
          <mxGeometry x="9" y="30" width="70" height="30" as="geometry" />
        </mxCell>
        <mxCell id="EDx5LjATlq7j0BT4Pbl9-166" value="endereÃ§o" style="text;html=1;align=center;verticalAlign=middle;resizable=0;points=[];autosize=1;strokeColor=none;fillColor=none;" vertex="1" parent="EDx5LjATlq7j0BT4Pbl9-163">
          <mxGeometry x="9" y="80" width="70" height="30" as="geometry" />
        </mxCell>
        <mxCell id="EDx5LjATlq7j0BT4Pbl9-167" value="&lt;font style=&quot;vertical-align: inherit;&quot; dir=&quot;auto&quot;&gt;&lt;font style=&quot;vertical-align: inherit;&quot; dir=&quot;auto&quot;&gt;&lt;font style=&quot;vertical-align: inherit;&quot; dir=&quot;auto&quot;&gt;&lt;font style=&quot;vertical-align: inherit;&quot; dir=&quot;auto&quot;&gt;atributos&lt;/font&gt;&lt;/font&gt;&lt;/font&gt;&lt;/font&gt;" style="swimlane;whiteSpace=wrap;html=1;" vertex="1" parent="1">
          <mxGeometry x="330" y="2652" width="140" height="188" as="geometry" />
        </mxCell>
        <mxCell id="EDx5LjATlq7j0BT4Pbl9-168" value="&lt;font style=&quot;vertical-align: inherit;&quot; dir=&quot;auto&quot;&gt;&lt;font style=&quot;vertical-align: inherit;&quot; dir=&quot;auto&quot;&gt;id_curso&lt;/font&gt;&lt;/font&gt;" style="text;html=1;align=center;verticalAlign=middle;resizable=0;points=[];autosize=1;strokeColor=none;fillColor=none;" vertex="1" parent="EDx5LjATlq7j0BT4Pbl9-167">
          <mxGeometry y="30" width="70" height="30" as="geometry" />
        </mxCell>
        <mxCell id="EDx5LjATlq7j0BT4Pbl9-169" value="&lt;font style=&quot;vertical-align: inherit;&quot; dir=&quot;auto&quot;&gt;&lt;font style=&quot;vertical-align: inherit;&quot; dir=&quot;auto&quot;&gt;id_aluno&lt;/font&gt;&lt;/font&gt;" style="text;html=1;align=center;verticalAlign=middle;resizable=0;points=[];autosize=1;strokeColor=none;fillColor=none;" vertex="1" parent="EDx5LjATlq7j0BT4Pbl9-167">
          <mxGeometry y="60" width="70" height="30" as="geometry" />
        </mxCell>
        <mxCell id="EDx5LjATlq7j0BT4Pbl9-170" value="&lt;font style=&quot;vertical-align: inherit;&quot; dir=&quot;auto&quot;&gt;&lt;font style=&quot;vertical-align: inherit;&quot; dir=&quot;auto&quot;&gt;nome&lt;/font&gt;&lt;/font&gt;" style="text;html=1;align=center;verticalAlign=middle;resizable=0;points=[];autosize=1;strokeColor=none;fillColor=none;" vertex="1" parent="EDx5LjATlq7j0BT4Pbl9-167">
          <mxGeometry y="85" width="50" height="30" as="geometry" />
        </mxCell>
        <mxCell id="EDx5LjATlq7j0BT4Pbl9-171" value="preÃ§o" style="text;html=1;align=center;verticalAlign=middle;resizable=0;points=[];autosize=1;strokeColor=none;fillColor=none;" vertex="1" parent="EDx5LjATlq7j0BT4Pbl9-167">
          <mxGeometry x="1" y="108" width="50" height="30" as="geometry" />
        </mxCell>
        <mxCell id="EDx5LjATlq7j0BT4Pbl9-172" value="turma" style="text;html=1;align=center;verticalAlign=middle;resizable=0;points=[];autosize=1;strokeColor=none;fillColor=none;" vertex="1" parent="EDx5LjATlq7j0BT4Pbl9-167">
          <mxGeometry x="1" y="146" width="50" height="30" as="geometry" />
        </mxCell>
        <mxCell id="EDx5LjATlq7j0BT4Pbl9-173" style="edgeStyle=orthogonalEdgeStyle;rounded=0;orthogonalLoop=1;jettySize=auto;html=1;" edge="1" parent="1" source="EDx5LjATlq7j0BT4Pbl9-177">
          <mxGeometry relative="1" as="geometry">
            <mxPoint x="20" y="2572" as="targetPoint" />
          </mxGeometry>
        </mxCell>
        <mxCell id="EDx5LjATlq7j0BT4Pbl9-174" value="1" style="edgeLabel;html=1;align=center;verticalAlign=middle;resizable=0;points=[];" vertex="1" connectable="0" parent="EDx5LjATlq7j0BT4Pbl9-173">
          <mxGeometry x="0.7227" y="-1" relative="1" as="geometry">
            <mxPoint x="-1" as="offset" />
          </mxGeometry>
        </mxCell>
        <mxCell id="EDx5LjATlq7j0BT4Pbl9-175" style="edgeStyle=orthogonalEdgeStyle;rounded=0;orthogonalLoop=1;jettySize=auto;html=1;exitX=1;exitY=0.5;exitDx=0;exitDy=0;" edge="1" parent="1" source="EDx5LjATlq7j0BT4Pbl9-177">
          <mxGeometry relative="1" as="geometry">
            <mxPoint x="340" y="2572" as="targetPoint" />
          </mxGeometry>
        </mxCell>
        <mxCell id="EDx5LjATlq7j0BT4Pbl9-176" value="1" style="edgeLabel;html=1;align=center;verticalAlign=middle;resizable=0;points=[];" vertex="1" connectable="0" parent="EDx5LjATlq7j0BT4Pbl9-175">
          <mxGeometry x="0.6666" y="-2" relative="1" as="geometry">
            <mxPoint as="offset" />
          </mxGeometry>
        </mxCell>
        <mxCell id="EDx5LjATlq7j0BT4Pbl9-177" value="ESCOLHE" style="rhombus;whiteSpace=wrap;html=1;" vertex="1" parent="1">
          <mxGeometry x="150" y="2532" width="80" height="80" as="geometry" />
        </mxCell>
        <mxCell id="EDx5LjATlq7j0BT4Pbl9-178" value="ALUNO" style="rounded=0;whiteSpace=wrap;html=1;" vertex="1" parent="1">
          <mxGeometry x="-100" y="2552" width="120" height="60" as="geometry" />
        </mxCell>
        <mxCell id="EDx5LjATlq7j0BT4Pbl9-179" value="&lt;font style=&quot;vertical-align: inherit;&quot; dir=&quot;auto&quot;&gt;&lt;font style=&quot;vertical-align: inherit;&quot; dir=&quot;auto&quot;&gt;CURSO&lt;/font&gt;&lt;/font&gt;" style="rounded=1;whiteSpace=wrap;html=1;" vertex="1" parent="1">
          <mxGeometry x="340" y="2552" width="120" height="60" as="geometry" />
        </mxCell>
        <mxCell id="EDx5LjATlq7j0BT4Pbl9-180" value="" style="endArrow=none;html=1;rounded=0;edgeStyle=orthogonalEdgeStyle;entryX=0;entryY=0.75;entryDx=0;entryDy=0;startArrow=oval;startFill=1;" edge="1" parent="1" target="EDx5LjATlq7j0BT4Pbl9-178">
          <mxGeometry width="50" height="50" relative="1" as="geometry">
            <mxPoint x="-160" y="2693" as="sourcePoint" />
            <mxPoint x="-220" y="2592" as="targetPoint" />
            <Array as="points">
              <mxPoint x="-160" y="2694" />
              <mxPoint x="-219" y="2694" />
              <mxPoint x="-219" y="2597" />
            </Array>
          </mxGeometry>
        </mxCell>
        <mxCell id="EDx5LjATlq7j0BT4Pbl9-181" value="" style="endArrow=none;html=1;rounded=0;edgeStyle=orthogonalEdgeStyle;startArrow=oval;startFill=0;" edge="1" parent="1" target="EDx5LjATlq7j0BT4Pbl9-179">
          <mxGeometry width="50" height="50" relative="1" as="geometry">
            <mxPoint x="480" y="2732" as="sourcePoint" />
            <mxPoint x="520" y="2572" as="targetPoint" />
            <Array as="points">
              <mxPoint x="470" y="2732" />
              <mxPoint x="470" y="2733" />
              <mxPoint x="521" y="2733" />
              <mxPoint x="521" y="2590" />
            </Array>
          </mxGeometry>
        </mxCell>
        <mxCell id="EDx5LjATlq7j0BT4Pbl9-182" value="" style="endArrow=none;html=1;rounded=0;startArrow=oval;startFill=1;edgeStyle=orthogonalEdgeStyle;entryX=1;entryY=0.75;entryDx=0;entryDy=0;" edge="1" parent="1" target="EDx5LjATlq7j0BT4Pbl9-179">
          <mxGeometry width="50" height="50" relative="1" as="geometry">
            <mxPoint x="480" y="2692" as="sourcePoint" />
            <mxPoint x="500" y="2602" as="targetPoint" />
            <Array as="points">
              <mxPoint x="470" y="2692" />
              <mxPoint x="470" y="2693" />
              <mxPoint x="511" y="2693" />
              <mxPoint x="511" y="2597" />
            </Array>
          </mxGeometry>
        </mxCell>
        <mxCell id="EDx5LjATlq7j0BT4Pbl9-183" value="" style="endArrow=none;html=1;rounded=0;edgeStyle=orthogonalEdgeStyle;entryX=0;entryY=0.25;entryDx=0;entryDy=0;startArrow=none;startFill=0;exitX=0;exitY=0.5;exitDx=0;exitDy=0;" edge="1" parent="1" source="EDx5LjATlq7j0BT4Pbl9-163" target="EDx5LjATlq7j0BT4Pbl9-178">
          <mxGeometry width="50" height="50" relative="1" as="geometry">
            <mxPoint x="-270" y="2722" as="sourcePoint" />
            <mxPoint x="-220" y="2572" as="targetPoint" />
            <Array as="points">
              <mxPoint x="-240" y="2727" />
              <mxPoint x="-240" y="2572" />
              <mxPoint x="-100" y="2572" />
            </Array>
          </mxGeometry>
        </mxCell>
        <mxCell id="EDx5LjATlq7j0BT4Pbl9-184" value="" style="endArrow=none;html=1;rounded=0;edgeStyle=orthogonalEdgeStyle;startArrow=none;startFill=0;" edge="1" parent="1">
          <mxGeometry width="50" height="50" relative="1" as="geometry">
            <mxPoint x="470" y="2753" as="sourcePoint" />
            <mxPoint x="460" y="2602" as="targetPoint" />
            <Array as="points">
              <mxPoint x="470" y="2753" />
              <mxPoint x="531" y="2753" />
              <mxPoint x="531" y="2580" />
              <mxPoint x="460" y="2580" />
            </Array>
          </mxGeometry>
        </mxCell>
        <mxCell id="EDx5LjATlq7j0BT4Pbl9-185" value="" style="endArrow=none;html=1;rounded=0;edgeStyle=orthogonalEdgeStyle;startArrow=none;startFill=0;entryX=1;entryY=0.5;entryDx=0;entryDy=0;" edge="1" parent="1" target="EDx5LjATlq7j0BT4Pbl9-179">
          <mxGeometry width="50" height="50" relative="1" as="geometry">
            <mxPoint x="470" y="2777" as="sourcePoint" />
            <mxPoint x="460" y="2570" as="targetPoint" />
            <Array as="points">
              <mxPoint x="470" y="2776" />
              <mxPoint x="469" y="2776" />
              <mxPoint x="469" y="2777" />
              <mxPoint x="539" y="2777" />
              <mxPoint x="539" y="2575" />
              <mxPoint x="460" y="2575" />
            </Array>
          </mxGeometry>
        </mxCell>
        <mxCell id="EDx5LjATlq7j0BT4Pbl9-186" value="" style="endArrow=none;html=1;rounded=0;edgeStyle=orthogonalEdgeStyle;startArrow=none;startFill=0;" edge="1" parent="1">
          <mxGeometry width="50" height="50" relative="1" as="geometry">
            <mxPoint x="469" y="2800" as="sourcePoint" />
            <mxPoint x="460" y="2560" as="targetPoint" />
            <Array as="points">
              <mxPoint x="551" y="2800" />
              <mxPoint x="551" y="2570" />
              <mxPoint x="460" y="2570" />
            </Array>
          </mxGeometry>
        </mxCell>
        <mxCell id="EDx5LjATlq7j0BT4Pbl9-187" value="" style="endArrow=none;html=1;rounded=0;edgeStyle=orthogonalEdgeStyle;startArrow=none;startFill=0;entryX=-0.015;entryY=0.127;entryDx=0;entryDy=0;entryPerimeter=0;" edge="1" parent="1" target="EDx5LjATlq7j0BT4Pbl9-178">
          <mxGeometry width="50" height="50" relative="1" as="geometry">
            <mxPoint x="-160" y="2760" as="sourcePoint" />
            <mxPoint x="-140" y="2557" as="targetPoint" />
            <Array as="points">
              <mxPoint x="-160" y="2750" />
              <mxPoint x="-260" y="2750" />
              <mxPoint x="-260" y="2560" />
            </Array>
          </mxGeometry>
        </mxCell>
        <mxCell id="EDx5LjATlq7j0BT4Pbl9-188" value="horÃ¡rio" style="text;html=1;align=center;verticalAlign=middle;resizable=0;points=[];autosize=1;strokeColor=none;fillColor=none;" vertex="1" parent="1">
          <mxGeometry x="329" y="2782" width="60" height="30" as="geometry" />
        </mxCell>
        <mxCell id="EDx5LjATlq7j0BT4Pbl9-189" value="" style="endArrow=none;html=1;rounded=0;edgeStyle=orthogonalEdgeStyle;startArrow=none;startFill=0;" edge="1" parent="1">
          <mxGeometry width="50" height="50" relative="1" as="geometry">
            <mxPoint x="469" y="2822" as="sourcePoint" />
            <mxPoint x="440" y="2550" as="targetPoint" />
            <Array as="points">
              <mxPoint x="570" y="2822" />
              <mxPoint x="570" y="2552" />
            </Array>
          </mxGeometry>
        </mxCell>
        <mxCell id="EDx5LjATlq7j0BT4Pbl9-190" value="" style="endArrow=none;html=1;rounded=0;edgeStyle=orthogonalEdgeStyle;startArrow=none;startFill=0;" edge="1" parent="1">
          <mxGeometry width="50" height="50" relative="1" as="geometry">
            <mxPoint x="470" y="2810" as="sourcePoint" />
            <mxPoint x="460" y="2560" as="targetPoint" />
            <Array as="points">
              <mxPoint x="557" y="2813" />
              <mxPoint x="557" y="2560" />
              <mxPoint x="466" y="2560" />
            </Array>
          </mxGeometry>
        </mxCell>
        <mxCell id="EDx5LjATlq7j0BT4Pbl9-191" value="ExercÃ­cio 8" style="text;html=1;align=center;verticalAlign=middle;resizable=0;points=[];autosize=1;strokeColor=none;fillColor=none;" vertex="1" parent="1">
          <mxGeometry x="49" y="2840" width="80" height="30" as="geometry" />
        </mxCell>
        <mxCell id="EDx5LjATlq7j0BT4Pbl9-192" value="&lt;font style=&quot;vertical-align: inherit;&quot; dir=&quot;auto&quot;&gt;&lt;font style=&quot;vertical-align: inherit;&quot; dir=&quot;auto&quot;&gt;&lt;font style=&quot;vertical-align: inherit;&quot; dir=&quot;auto&quot;&gt;&lt;font style=&quot;vertical-align: inherit;&quot; dir=&quot;auto&quot;&gt;atributos&lt;/font&gt;&lt;/font&gt;&lt;span style=&quot;white-space: pre;&quot;&gt;&#x9;&lt;/span&gt;&lt;/font&gt;&lt;/font&gt;" style="swimlane;whiteSpace=wrap;html=1;" vertex="1" parent="1">
          <mxGeometry x="-270" y="3142.44" width="140" height="150" as="geometry" />
        </mxCell>
        <mxCell id="EDx5LjATlq7j0BT4Pbl9-193" value="&lt;font style=&quot;vertical-align: inherit;&quot; dir=&quot;auto&quot;&gt;&lt;font style=&quot;vertical-align: inherit;&quot; dir=&quot;auto&quot;&gt;&lt;font style=&quot;vertical-align: inherit;&quot; dir=&quot;auto&quot;&gt;&lt;font style=&quot;vertical-align: inherit;&quot; dir=&quot;auto&quot;&gt;nome&lt;/font&gt;&lt;/font&gt;&lt;/font&gt;&lt;/font&gt;" style="text;html=1;align=center;verticalAlign=middle;resizable=0;points=[];autosize=1;strokeColor=none;fillColor=none;" vertex="1" parent="EDx5LjATlq7j0BT4Pbl9-192">
          <mxGeometry x="11" y="50" width="50" height="30" as="geometry" />
        </mxCell>
        <mxCell id="EDx5LjATlq7j0BT4Pbl9-194" value="id_departamento" style="text;html=1;align=center;verticalAlign=middle;resizable=0;points=[];autosize=1;strokeColor=none;fillColor=none;" vertex="1" parent="EDx5LjATlq7j0BT4Pbl9-192">
          <mxGeometry x="9" y="28" width="110" height="30" as="geometry" />
        </mxCell>
        <mxCell id="EDx5LjATlq7j0BT4Pbl9-195" value="endereÃ§o" style="text;html=1;align=center;verticalAlign=middle;resizable=0;points=[];autosize=1;strokeColor=none;fillColor=none;" vertex="1" parent="EDx5LjATlq7j0BT4Pbl9-192">
          <mxGeometry x="9" y="79" width="70" height="30" as="geometry" />
        </mxCell>
        <mxCell id="EDx5LjATlq7j0BT4Pbl9-196" value="&lt;font style=&quot;vertical-align: inherit;&quot; dir=&quot;auto&quot;&gt;&lt;font style=&quot;vertical-align: inherit;&quot; dir=&quot;auto&quot;&gt;&lt;font style=&quot;vertical-align: inherit;&quot; dir=&quot;auto&quot;&gt;&lt;font style=&quot;vertical-align: inherit;&quot; dir=&quot;auto&quot;&gt;atributos&lt;/font&gt;&lt;/font&gt;&lt;/font&gt;&lt;/font&gt;" style="swimlane;whiteSpace=wrap;html=1;" vertex="1" parent="1">
          <mxGeometry x="291" y="3142" width="140" height="188" as="geometry" />
        </mxCell>
        <mxCell id="EDx5LjATlq7j0BT4Pbl9-197" value="&lt;font style=&quot;vertical-align: inherit;&quot; dir=&quot;auto&quot;&gt;&lt;font style=&quot;vertical-align: inherit;&quot; dir=&quot;auto&quot;&gt;id_projeto&lt;/font&gt;&lt;/font&gt;" style="text;html=1;align=center;verticalAlign=middle;resizable=0;points=[];autosize=1;strokeColor=none;fillColor=none;" vertex="1" parent="EDx5LjATlq7j0BT4Pbl9-196">
          <mxGeometry x="10" y="30" width="80" height="30" as="geometry" />
        </mxCell>
        <mxCell id="EDx5LjATlq7j0BT4Pbl9-198" value="&lt;font style=&quot;vertical-align: inherit;&quot; dir=&quot;auto&quot;&gt;&lt;font style=&quot;vertical-align: inherit;&quot; dir=&quot;auto&quot;&gt;id_departamento&lt;/font&gt;&lt;/font&gt;" style="text;html=1;align=center;verticalAlign=middle;resizable=0;points=[];autosize=1;strokeColor=none;fillColor=none;" vertex="1" parent="EDx5LjATlq7j0BT4Pbl9-196">
          <mxGeometry x="14" y="56" width="110" height="30" as="geometry" />
        </mxCell>
        <mxCell id="EDx5LjATlq7j0BT4Pbl9-199" value="&lt;font style=&quot;vertical-align: inherit;&quot; dir=&quot;auto&quot;&gt;&lt;font style=&quot;vertical-align: inherit;&quot; dir=&quot;auto&quot;&gt;id_funcionario&lt;/font&gt;&lt;/font&gt;" style="text;html=1;align=center;verticalAlign=middle;resizable=0;points=[];autosize=1;strokeColor=none;fillColor=none;" vertex="1" parent="EDx5LjATlq7j0BT4Pbl9-196">
          <mxGeometry x="11" y="81" width="100" height="30" as="geometry" />
        </mxCell>
        <mxCell id="EDx5LjATlq7j0BT4Pbl9-200" value="nome" style="text;html=1;align=center;verticalAlign=middle;resizable=0;points=[];autosize=1;strokeColor=none;fillColor=none;" vertex="1" parent="EDx5LjATlq7j0BT4Pbl9-196">
          <mxGeometry x="16" y="108" width="50" height="30" as="geometry" />
        </mxCell>
        <mxCell id="EDx5LjATlq7j0BT4Pbl9-201" value="preÃ§o" style="text;html=1;align=center;verticalAlign=middle;resizable=0;points=[];autosize=1;strokeColor=none;fillColor=none;" vertex="1" parent="EDx5LjATlq7j0BT4Pbl9-196">
          <mxGeometry x="15" y="149" width="50" height="30" as="geometry" />
        </mxCell>
        <mxCell id="EDx5LjATlq7j0BT4Pbl9-238" style="edgeStyle=orthogonalEdgeStyle;rounded=0;orthogonalLoop=1;jettySize=auto;html=1;" edge="1" parent="1" source="EDx5LjATlq7j0BT4Pbl9-207">
          <mxGeometry relative="1" as="geometry">
            <mxPoint x="60" y="3070" as="targetPoint" />
          </mxGeometry>
        </mxCell>
        <mxCell id="EDx5LjATlq7j0BT4Pbl9-207" value="DEPARTAMENTO" style="rounded=0;whiteSpace=wrap;html=1;" vertex="1" parent="1">
          <mxGeometry x="-209" y="3040" width="120" height="60" as="geometry" />
        </mxCell>
        <mxCell id="EDx5LjATlq7j0BT4Pbl9-244" style="edgeStyle=orthogonalEdgeStyle;rounded=0;orthogonalLoop=1;jettySize=auto;html=1;" edge="1" parent="1" source="EDx5LjATlq7j0BT4Pbl9-208">
          <mxGeometry relative="1" as="geometry">
            <mxPoint x="250" y="3340" as="targetPoint" />
            <Array as="points">
              <mxPoint x="251" y="3080" />
              <mxPoint x="251" y="3340" />
            </Array>
          </mxGeometry>
        </mxCell>
        <mxCell id="EDx5LjATlq7j0BT4Pbl9-208" value="&lt;font style=&quot;vertical-align: inherit;&quot; dir=&quot;auto&quot;&gt;&lt;font style=&quot;vertical-align: inherit;&quot; dir=&quot;auto&quot;&gt;PROJETO&lt;/font&gt;&lt;/font&gt;" style="rounded=1;whiteSpace=wrap;html=1;" vertex="1" parent="1">
          <mxGeometry x="301" y="3042" width="120" height="60" as="geometry" />
        </mxCell>
        <mxCell id="EDx5LjATlq7j0BT4Pbl9-209" value="" style="endArrow=none;html=1;rounded=0;edgeStyle=orthogonalEdgeStyle;entryX=0;entryY=0.75;entryDx=0;entryDy=0;startArrow=oval;startFill=1;" edge="1" parent="1">
          <mxGeometry width="50" height="50" relative="1" as="geometry">
            <mxPoint x="-270" y="3183.44" as="sourcePoint" />
            <mxPoint x="-210" y="3087.44" as="targetPoint" />
            <Array as="points">
              <mxPoint x="-270" y="3184.44" />
              <mxPoint x="-329" y="3184.44" />
              <mxPoint x="-329" y="3087.44" />
            </Array>
          </mxGeometry>
        </mxCell>
        <mxCell id="EDx5LjATlq7j0BT4Pbl9-210" value="" style="endArrow=none;html=1;rounded=0;edgeStyle=orthogonalEdgeStyle;startArrow=oval;startFill=0;" edge="1" parent="1" target="EDx5LjATlq7j0BT4Pbl9-208">
          <mxGeometry width="50" height="50" relative="1" as="geometry">
            <mxPoint x="441" y="3222" as="sourcePoint" />
            <mxPoint x="481" y="3062" as="targetPoint" />
            <Array as="points">
              <mxPoint x="431" y="3222" />
              <mxPoint x="431" y="3223" />
              <mxPoint x="482" y="3223" />
              <mxPoint x="482" y="3080" />
            </Array>
          </mxGeometry>
        </mxCell>
        <mxCell id="EDx5LjATlq7j0BT4Pbl9-211" value="" style="endArrow=none;html=1;rounded=0;startArrow=oval;startFill=1;edgeStyle=orthogonalEdgeStyle;entryX=1;entryY=0.75;entryDx=0;entryDy=0;" edge="1" parent="1" target="EDx5LjATlq7j0BT4Pbl9-208">
          <mxGeometry width="50" height="50" relative="1" as="geometry">
            <mxPoint x="441" y="3182" as="sourcePoint" />
            <mxPoint x="461" y="3092" as="targetPoint" />
            <Array as="points">
              <mxPoint x="431" y="3182" />
              <mxPoint x="431" y="3183" />
              <mxPoint x="472" y="3183" />
              <mxPoint x="472" y="3087" />
            </Array>
          </mxGeometry>
        </mxCell>
        <mxCell id="EDx5LjATlq7j0BT4Pbl9-212" value="" style="endArrow=none;html=1;rounded=0;edgeStyle=orthogonalEdgeStyle;startArrow=none;startFill=0;exitX=0;exitY=0.5;exitDx=0;exitDy=0;" edge="1" parent="1" source="EDx5LjATlq7j0BT4Pbl9-192">
          <mxGeometry width="50" height="50" relative="1" as="geometry">
            <mxPoint x="-380" y="3212.44" as="sourcePoint" />
            <mxPoint x="-210" y="3057" as="targetPoint" />
            <Array as="points">
              <mxPoint x="-350" y="3217.44" />
              <mxPoint x="-350" y="3062.44" />
              <mxPoint x="-210" y="3062.44" />
            </Array>
          </mxGeometry>
        </mxCell>
        <mxCell id="EDx5LjATlq7j0BT4Pbl9-213" value="" style="endArrow=none;html=1;rounded=0;edgeStyle=orthogonalEdgeStyle;startArrow=oval;startFill=0;" edge="1" parent="1">
          <mxGeometry width="50" height="50" relative="1" as="geometry">
            <mxPoint x="431" y="3243" as="sourcePoint" />
            <mxPoint x="421" y="3092" as="targetPoint" />
            <Array as="points">
              <mxPoint x="431" y="3243" />
              <mxPoint x="492" y="3243" />
              <mxPoint x="492" y="3070" />
              <mxPoint x="421" y="3070" />
            </Array>
          </mxGeometry>
        </mxCell>
        <mxCell id="EDx5LjATlq7j0BT4Pbl9-214" value="" style="endArrow=none;html=1;rounded=0;edgeStyle=orthogonalEdgeStyle;startArrow=none;startFill=0;entryX=1;entryY=0.5;entryDx=0;entryDy=0;" edge="1" parent="1" target="EDx5LjATlq7j0BT4Pbl9-208">
          <mxGeometry width="50" height="50" relative="1" as="geometry">
            <mxPoint x="431" y="3267" as="sourcePoint" />
            <mxPoint x="421" y="3060" as="targetPoint" />
            <Array as="points">
              <mxPoint x="431" y="3266" />
              <mxPoint x="430" y="3266" />
              <mxPoint x="430" y="3267" />
              <mxPoint x="500" y="3267" />
              <mxPoint x="500" y="3065" />
              <mxPoint x="421" y="3065" />
            </Array>
          </mxGeometry>
        </mxCell>
        <mxCell id="EDx5LjATlq7j0BT4Pbl9-215" value="" style="endArrow=none;html=1;rounded=0;edgeStyle=orthogonalEdgeStyle;startArrow=none;startFill=0;" edge="1" parent="1">
          <mxGeometry width="50" height="50" relative="1" as="geometry">
            <mxPoint x="430" y="3290" as="sourcePoint" />
            <mxPoint x="421" y="3050" as="targetPoint" />
            <Array as="points">
              <mxPoint x="512" y="3290" />
              <mxPoint x="512" y="3060" />
              <mxPoint x="421" y="3060" />
            </Array>
          </mxGeometry>
        </mxCell>
        <mxCell id="EDx5LjATlq7j0BT4Pbl9-216" value="" style="endArrow=none;html=1;rounded=0;edgeStyle=orthogonalEdgeStyle;startArrow=none;startFill=0;entryX=-0.015;entryY=0.127;entryDx=0;entryDy=0;entryPerimeter=0;" edge="1" parent="1">
          <mxGeometry width="50" height="50" relative="1" as="geometry">
            <mxPoint x="-270" y="3250.44" as="sourcePoint" />
            <mxPoint x="-211.79999999999995" y="3050.06" as="targetPoint" />
            <Array as="points">
              <mxPoint x="-270" y="3240.44" />
              <mxPoint x="-370" y="3240.44" />
              <mxPoint x="-370" y="3050.44" />
            </Array>
          </mxGeometry>
        </mxCell>
        <mxCell id="EDx5LjATlq7j0BT4Pbl9-217" value="prazo" style="text;html=1;align=center;verticalAlign=middle;resizable=0;points=[];autosize=1;strokeColor=none;fillColor=none;" vertex="1" parent="1">
          <mxGeometry x="306" y="3272" width="50" height="30" as="geometry" />
        </mxCell>
        <mxCell id="EDx5LjATlq7j0BT4Pbl9-218" value="" style="endArrow=none;html=1;rounded=0;edgeStyle=orthogonalEdgeStyle;startArrow=none;startFill=0;" edge="1" parent="1">
          <mxGeometry width="50" height="50" relative="1" as="geometry">
            <mxPoint x="430" y="3312" as="sourcePoint" />
            <mxPoint x="401" y="3040" as="targetPoint" />
            <Array as="points">
              <mxPoint x="531" y="3312" />
              <mxPoint x="531" y="3042" />
            </Array>
          </mxGeometry>
        </mxCell>
        <mxCell id="EDx5LjATlq7j0BT4Pbl9-219" value="" style="endArrow=none;html=1;rounded=0;edgeStyle=orthogonalEdgeStyle;startArrow=none;startFill=0;" edge="1" parent="1">
          <mxGeometry width="50" height="50" relative="1" as="geometry">
            <mxPoint x="431" y="3300" as="sourcePoint" />
            <mxPoint x="421" y="3050" as="targetPoint" />
            <Array as="points">
              <mxPoint x="518" y="3303" />
              <mxPoint x="518" y="3050" />
              <mxPoint x="427" y="3050" />
            </Array>
          </mxGeometry>
        </mxCell>
        <mxCell id="EDx5LjATlq7j0BT4Pbl9-220" value="ATRIBUTO" style="swimlane;whiteSpace=wrap;html=1;" vertex="1" parent="1">
          <mxGeometry x="-30" y="3460" width="161" height="200" as="geometry" />
        </mxCell>
        <mxCell id="EDx5LjATlq7j0BT4Pbl9-222" value="id_departamento" style="text;html=1;align=center;verticalAlign=middle;resizable=0;points=[];autosize=1;strokeColor=none;fillColor=none;" vertex="1" parent="EDx5LjATlq7j0BT4Pbl9-220">
          <mxGeometry x="11" y="66" width="110" height="30" as="geometry" />
        </mxCell>
        <mxCell id="EDx5LjATlq7j0BT4Pbl9-223" value="id_projeto" style="text;html=1;align=center;verticalAlign=middle;resizable=0;points=[];autosize=1;strokeColor=none;fillColor=none;" vertex="1" parent="EDx5LjATlq7j0BT4Pbl9-220">
          <mxGeometry x="7" y="88" width="80" height="30" as="geometry" />
        </mxCell>
        <mxCell id="EDx5LjATlq7j0BT4Pbl9-224" value="nome" style="text;html=1;align=center;verticalAlign=middle;resizable=0;points=[];autosize=1;strokeColor=none;fillColor=none;" vertex="1" parent="EDx5LjATlq7j0BT4Pbl9-220">
          <mxGeometry x="11" y="111" width="50" height="30" as="geometry" />
        </mxCell>
        <mxCell id="EDx5LjATlq7j0BT4Pbl9-225" value="EndereÃ§o" style="text;html=1;align=center;verticalAlign=middle;resizable=0;points=[];autosize=1;strokeColor=none;fillColor=none;" vertex="1" parent="EDx5LjATlq7j0BT4Pbl9-220">
          <mxGeometry x="11" y="133" width="70" height="30" as="geometry" />
        </mxCell>
        <mxCell id="EDx5LjATlq7j0BT4Pbl9-226" value="salÃ¡rio" style="text;html=1;align=center;verticalAlign=middle;resizable=0;points=[];autosize=1;strokeColor=none;fillColor=none;" vertex="1" parent="EDx5LjATlq7j0BT4Pbl9-220">
          <mxGeometry x="10" y="155" width="60" height="30" as="geometry" />
        </mxCell>
        <mxCell id="EDx5LjATlq7j0BT4Pbl9-221" value="id_funcionario" style="text;html=1;align=center;verticalAlign=middle;resizable=0;points=[];autosize=1;strokeColor=none;fillColor=none;" vertex="1" parent="1">
          <mxGeometry x="-20.5" y="3502" width="100" height="30" as="geometry" />
        </mxCell>
        <mxCell id="EDx5LjATlq7j0BT4Pbl9-246" style="edgeStyle=orthogonalEdgeStyle;rounded=0;orthogonalLoop=1;jettySize=auto;html=1;" edge="1" parent="1" source="EDx5LjATlq7j0BT4Pbl9-227">
          <mxGeometry relative="1" as="geometry">
            <mxPoint x="200" y="3380" as="targetPoint" />
          </mxGeometry>
        </mxCell>
        <mxCell id="EDx5LjATlq7j0BT4Pbl9-227" value="FUNCIONÃRIO" style="rounded=0;whiteSpace=wrap;html=1;" vertex="1" parent="1">
          <mxGeometry x="-19.5" y="3330" width="120" height="60" as="geometry" />
        </mxCell>
        <mxCell id="EDx5LjATlq7j0BT4Pbl9-229" value="" style="endArrow=none;html=1;rounded=0;edgeStyle=orthogonalEdgeStyle;entryX=0;entryY=0.75;entryDx=0;entryDy=0;startArrow=oval;startFill=1;" edge="1" parent="1" target="EDx5LjATlq7j0BT4Pbl9-227">
          <mxGeometry width="50" height="50" relative="1" as="geometry">
            <mxPoint x="-29.5" y="3517.44" as="sourcePoint" />
            <mxPoint x="-79.5" y="3478" as="targetPoint" />
            <Array as="points">
              <mxPoint x="-79.5" y="3517" />
              <mxPoint x="-79.5" y="3375" />
            </Array>
          </mxGeometry>
        </mxCell>
        <mxCell id="EDx5LjATlq7j0BT4Pbl9-230" value="" style="endArrow=none;html=1;rounded=0;edgeStyle=orthogonalEdgeStyle;entryX=0;entryY=0.5;entryDx=0;entryDy=0;startArrow=oval;startFill=0;" edge="1" parent="1" target="EDx5LjATlq7j0BT4Pbl9-227">
          <mxGeometry width="50" height="50" relative="1" as="geometry">
            <mxPoint x="-29.5" y="3538" as="sourcePoint" />
            <mxPoint x="-59.5" y="3358" as="targetPoint" />
            <Array as="points">
              <mxPoint x="-29.5" y="3538" />
              <mxPoint x="-89.5" y="3538" />
              <mxPoint x="-89.5" y="3368" />
              <mxPoint x="-19.5" y="3368" />
            </Array>
          </mxGeometry>
        </mxCell>
        <mxCell id="EDx5LjATlq7j0BT4Pbl9-231" value="" style="endArrow=none;html=1;rounded=0;edgeStyle=orthogonalEdgeStyle;entryX=0;entryY=0.25;entryDx=0;entryDy=0;startArrow=oval;startFill=0;" edge="1" parent="1" target="EDx5LjATlq7j0BT4Pbl9-227">
          <mxGeometry width="50" height="50" relative="1" as="geometry">
            <mxPoint x="-29.5" y="3560" as="sourcePoint" />
            <mxPoint x="-29.5" y="3348" as="targetPoint" />
            <Array as="points">
              <mxPoint x="-29.5" y="3558" />
              <mxPoint x="-99.5" y="3558" />
              <mxPoint x="-99.5" y="3360" />
              <mxPoint x="-19.5" y="3360" />
            </Array>
          </mxGeometry>
        </mxCell>
        <mxCell id="EDx5LjATlq7j0BT4Pbl9-232" value="" style="endArrow=none;html=1;rounded=0;edgeStyle=orthogonalEdgeStyle;" edge="1" parent="1">
          <mxGeometry width="50" height="50" relative="1" as="geometry">
            <mxPoint x="-34.5" y="3583" as="sourcePoint" />
            <mxPoint x="-24.5" y="3348" as="targetPoint" />
            <Array as="points">
              <mxPoint x="-34.5" y="3583" />
              <mxPoint x="-104.5" y="3583" />
              <mxPoint x="-104.5" y="3348" />
            </Array>
          </mxGeometry>
        </mxCell>
        <mxCell id="EDx5LjATlq7j0BT4Pbl9-233" value="" style="endArrow=none;html=1;rounded=0;edgeStyle=orthogonalEdgeStyle;entryX=0;entryY=0.25;entryDx=0;entryDy=0;" edge="1" parent="1" target="EDx5LjATlq7j0BT4Pbl9-227">
          <mxGeometry width="50" height="50" relative="1" as="geometry">
            <mxPoint x="-29.5" y="3598" as="sourcePoint" />
            <mxPoint x="-39.5" y="3338" as="targetPoint" />
            <Array as="points">
              <mxPoint x="-119.5" y="3598" />
              <mxPoint x="-119.5" y="3345" />
            </Array>
          </mxGeometry>
        </mxCell>
        <mxCell id="EDx5LjATlq7j0BT4Pbl9-234" value="" style="endArrow=none;html=1;rounded=0;edgeStyle=orthogonalEdgeStyle;entryX=0;entryY=0.25;entryDx=0;entryDy=0;" edge="1" parent="1">
          <mxGeometry width="50" height="50" relative="1" as="geometry">
            <mxPoint x="-30.5" y="3628" as="sourcePoint" />
            <mxPoint x="-20.5" y="3338" as="targetPoint" />
            <Array as="points">
              <mxPoint x="-129.5" y="3628" />
              <mxPoint x="-129.5" y="3338" />
            </Array>
          </mxGeometry>
        </mxCell>
        <mxCell id="EDx5LjATlq7j0BT4Pbl9-239" style="edgeStyle=orthogonalEdgeStyle;rounded=0;orthogonalLoop=1;jettySize=auto;html=1;" edge="1" parent="1" source="EDx5LjATlq7j0BT4Pbl9-235">
          <mxGeometry relative="1" as="geometry">
            <mxPoint x="300" y="3070" as="targetPoint" />
          </mxGeometry>
        </mxCell>
        <mxCell id="EDx5LjATlq7j0BT4Pbl9-235" value="" style="rhombus;whiteSpace=wrap;html=1;" vertex="1" parent="1">
          <mxGeometry x="64" y="3030" width="80" height="80" as="geometry" />
        </mxCell>
        <mxCell id="EDx5LjATlq7j0BT4Pbl9-241" style="edgeStyle=orthogonalEdgeStyle;rounded=0;orthogonalLoop=1;jettySize=auto;html=1;entryX=0.75;entryY=1;entryDx=0;entryDy=0;" edge="1" parent="1" source="EDx5LjATlq7j0BT4Pbl9-240" target="EDx5LjATlq7j0BT4Pbl9-207">
          <mxGeometry relative="1" as="geometry" />
        </mxCell>
        <mxCell id="EDx5LjATlq7j0BT4Pbl9-242" style="edgeStyle=orthogonalEdgeStyle;rounded=0;orthogonalLoop=1;jettySize=auto;html=1;" edge="1" parent="1" source="EDx5LjATlq7j0BT4Pbl9-240">
          <mxGeometry relative="1" as="geometry">
            <mxPoint x="41" y="3320" as="targetPoint" />
          </mxGeometry>
        </mxCell>
        <mxCell id="EDx5LjATlq7j0BT4Pbl9-240" value="" style="rhombus;whiteSpace=wrap;html=1;" vertex="1" parent="1">
          <mxGeometry x="-130" y="3160" width="80" height="80" as="geometry" />
        </mxCell>
        <mxCell id="EDx5LjATlq7j0BT4Pbl9-243" value="" style="rhombus;whiteSpace=wrap;html=1;" vertex="1" parent="1">
          <mxGeometry x="211" y="3340" width="80" height="80" as="geometry" />
        </mxCell>
      </root>
    </mxGraphModel>
  </diagram>
</mxfile>
